<svg xmlns="http://www.w3.org/2000/svg" xmlns:xlink="http://www.w3.org/1999/xlink" width="32" height="32" viewBox="0 0 32 32">
    <defs>
        <linearGradient id="b" x1="50%" x2="50%" y1="0%" y2="100%">
            <stop offset="0%" stop-color="#D2E3E7"/>
            <stop offset="100%" stop-color="#ABB3B3"/>
        </linearGradient>
        <path id="a" d="M24.375 0C29 0 32 3 32 7.625v16.75C32 29 29 32 24.375 32H7.625C3 32 0 29 0 24.375V7.625C0 3 3 0 7.625 0h16.75z"/>
        <radialGradient id="d" cx="100%" cy="0%" r="141.421%" fx="100%" fy="0%">
            <stop offset="0%" stop-color="#00D6FF"/>
            <stop offset="100%" stop-color="#0176C0"/>
        </radialGradient>
    </defs>
    <g fill="none" fill-rule="evenodd">
        <mask id="c" fill="#fff">
            <use xlink:href="#a"/>
        </mask>
        <use fill="url(#b)" xlink:href="#a"/>
        <g mask="url(#c)">
            <rect width="32" height="32" fill="url(#d)" rx="5"/>
            <path fill="#FFF" d="M11.75 25.344l-.397-1.05h-.22v1.05h-.822v-3.122h1.109c.357 0 .635.09.833.267.198.178.297.427.297.747a.983.983 0 0 1-.429.822l.541 1.286h-.912zm-.38-1.727c.117 0 .205-.032.266-.094.061-.063.092-.153.092-.27 0-.113-.03-.2-.09-.261-.059-.062-.145-.092-.259-.092h-.245v.717h.236zm4.84-1.395h.876v1.941c0 .411-.1.724-.302.938-.2.214-.494.321-.878.321s-.677-.107-.878-.321c-.201-.214-.302-.527-.302-.938v-1.94h.876v2.006c0 .145.024.252.072.319.047.067.125.1.232.1.107 0 .185-.033.232-.1.048-.067.072-.174.072-.32v-2.006zm4.723 3.122l-.768-1.57v1.57h-.805v-3.122h.778l.769 1.57v-1.57h.804v3.122h-.778z"/>
            <path fill="#FFF" fill-rule="nonzero" d="M19.296 13l-.271.198c-.688.496-1.686.836-2.984.836h-.086c-1.297 0-2.296-.34-2.983-.836a19.953 19.953 0 0 1-.27-.198c.075-.057.163-.122.27-.199.687-.495 1.686-.836 2.983-.836h.086c1.298 0 2.297.34 2.984.836.107.077.196.142.27.199M26 8.909s-.59-.46-2.458-1.159c-1.64-.613-2.877-.75-2.877-.75l.005 3.602c0 .507-.136.97-.516 1.499-1.393-.518-2.71-.836-4.15-.836-1.44 0-2.757.318-4.15.836-.381-.526-.516-.992-.516-1.499L11.344 7s-1.246.136-2.887.75C6.591 8.451 6 8.91 6 8.91c.077 1.635 1.483 3.088 3.696 4.091-2.215 1.002-3.62 2.452-3.696 4.091 0 0 .59.459 2.457 1.159 1.64.613 2.878.75 2.878.75l-.006-3.603c0-.507.137-.97.516-1.498 1.393.517 2.71.835 4.15.835 1.44 0 2.757-.318 4.15-.835.381.526.516.99.516 1.498L20.656 19s1.237-.137 2.877-.75c1.868-.701 2.458-1.159 2.458-1.159-.077-1.636-1.482-3.09-3.696-4.091 2.215-1.003 3.62-2.452 3.696-4.091"/>
        </g>
    </g>
</svg>
