<?xml version="1.0" encoding="utf-8"?>
<!-- Generator: Adobe Illustrator 25.4.1, SVG Export Plug-In . SVG Version: 6.00 Build 0)  -->
<svg version="1.1" id="Layer_1" xmlns="http://www.w3.org/2000/svg" xmlns:xlink="http://www.w3.org/1999/xlink" x="0px" y="0px"
	 viewBox="0 0 1044 297" style="enable-background:new 0 0 1044 297;" xml:space="preserve">
<style type="text/css">
	.st0{clip-path:url(#SVGID_00000126289134797402480030000003198636409502216598_);}
	.st1{fill:#111111;}
	.st2{fill:#A3A3A3;}
</style>
<g>
	<defs>
		<rect id="SVGID_1_" width="1043.8" height="297"/>
	</defs>
	<clipPath id="SVGID_00000046307066687905502760000009058006667598202036_">
		<use xlink:href="#SVGID_1_"  style="overflow:visible;"/>
	</clipPath>
	<g style="clip-path:url(#SVGID_00000046307066687905502760000009058006667598202036_);">
		<path class="st1" d="M18.3,239.3l7.1,57.7h247.9l-8.1-66.1H149.6l-1-8.2L255,148.3l-7.1-57.8H0l8.1,66.1h115.8l1,8.3L18.3,239.3z"
			/>
		<path class="st2" d="M277.3,90.5L302.7,297h480.7L758,90.5H277.3z"/>
		<path class="st1" d="M1042.9,164.9c-5.7-46.4-42.2-74.5-91.7-74.3h-165l25.3,206.5h74.2l-5.1-41.3h78.6
			C1021.1,255.7,1049.4,217.2,1042.9,164.9z M951.2,197.9l-77.6,0.1l-6.1-49.5l78,0.1c18.4,0.2,27.8,10.6,29.3,24.7
			C975.8,182.2,971.6,197.8,951.2,197.9L951.2,197.9z"/>
		<path class="st1" d="M338.2,70.8c13.1-14,10.8-37.4-5.1-52.1c-15.9-14.8-39.3-15.4-52.4-1.4c-13.1,14-10.8,37.4,5.1,52.1
			C301.7,84.2,325.2,84.9,338.2,70.8z"/>
		<path class="st1" d="M387.7,226.3l3.4,28.1H349l-14.4-117h69.4c48.6,0,70.2,15.2,74,45.5c3.6,29-16.2,43.6-61.4,43.4L387.7,226.3z
			 M380.8,169.5l3.2,26.3h27.5c18.8,0,24.7-3.3,23.6-12.8c-1.4-11.3-9.2-13.5-27.3-13.5L380.8,169.5z"/>
		<path class="st1" d="M572.4,234.3H522l-5.7,20.1h-40.4l37.5-117h43.8l65.9,117h-40L572.4,234.3z M539.4,172.4l-9.7,34.1h27.9
			L539.4,172.4z"/>
		<path class="st1" d="M648.4,254.3l-5.7-46.5l-57.5-70.5h44.4l30.2,38.4l21.9-38.4H726L683.4,208l5.7,46.3L648.4,254.3z"/>
	</g>
</g>
</svg>
