<svg xmlns="http://www.w3.org/2000/svg" width="16" height="16" viewBox="0 0 16 16">
    <g fill="none" fill-rule="evenodd">
        <g>
            <g>
                <g>
                    <g>
                        <path fill="#FFF" d="M0 0H16V16H0z" transform="translate(-182 -537) translate(142 304) translate(40 80) translate(0 153)"/>
                        <g>
                            <path fill="#FFF" stroke="#1D1D1D" d="M0 4h14v9.5c0 .276-.224.5-.5.5H.5c-.276 0-.5-.224-.5-.5V4h0z" transform="translate(-182 -537) translate(142 304) translate(40 80) translate(0 153) translate(1 1)"/>
                            <path fill="#1D1D1D" fill-rule="nonzero" d="M5.224 11.102c1.08 0 1.542-.54 1.542-1.284 0-.54-.228-.9-.81-1.05.516-.168.714-.516.714-.936 0-.654-.45-1.17-1.434-1.17-.996 0-1.53.486-1.53 1.356h.822c0-.396.174-.702.66-.702.438 0 .618.24.618.6 0 .354-.234.57-.78.57h-.12v.588h.126c.546 0 .84.192.84.636 0 .39-.186.678-.69.678-.576 0-.72-.396-.72-.924H3.64c0 1.008.366 1.638 1.584 1.638zM9.412 11V6.764H7.798l-.168.786h.924V11h.858z" transform="translate(-182 -537) translate(142 304) translate(40 80) translate(0 153) translate(1 1)"/>
                            <path fill="#FFF" stroke="#1D1D1D" d="M0 1H14V4H0z" transform="translate(-182 -537) translate(142 304) translate(40 80) translate(0 153) translate(1 1)"/>
                            <path stroke="#1D1D1D" stroke-linecap="round" d="M4 0L4 2M10 0L10 2" transform="translate(-182 -537) translate(142 304) translate(40 80) translate(0 153) translate(1 1)"/>
                        </g>
                    </g>
                </g>
            </g>
        </g>
    </g>
</svg>
