<svg width="244" height="24" viewBox="0 0 244 24" fill="none" xmlns="http://www.w3.org/2000/svg">
<path d="M156.308 22.7883H162.294V1.16699H151.614H149.894C148.512 1.16699 147.761 1.55867 147.039 2.90974L142.053 12.34L142.066 12.3291L142.061 12.34L136.55 22.791H143.417L151.703 7.26047C151.92 6.85379 152.343 6.59995 152.804 6.59995H156.291L156.306 14.5713H148.591L151.42 19.1049H156.308V22.7883V22.7883Z" fill="#1D1D1D"/>
<path d="M118.527 21.0468L123.514 11.1348L123.722 10.7391V22.7895H130.476C131.858 22.7895 132.609 22.3979 133.331 21.0468L138.319 11.6166L143.828 1.16553H137.204L128.95 17.7251L129.175 8.28392V1.16689H129.026H123.724H123.117L114.619 17.7251L115.109 8.28392V1.16689H109.03V22.7895H115.672C117.056 22.7895 117.807 22.3979 118.527 21.0468Z" fill="#1D1D1D"/>
<path d="M183.89 1.16699H166.19V22.7896H172.131V6.54127H182.959C184.071 6.54127 184.67 7.14038 184.67 8.25536V10.1783C184.67 11.2878 184.071 11.891 182.959 11.891H172.909L175.37 16.4259H180.018L184.19 22.791H190.608L186.349 16.3045C189.194 15.4297 190.608 13.242 190.608 9.93669V7.65761C190.608 3.86914 188.358 1.16699 183.89 1.16699Z" fill="#1D1D1D"/>
<path d="M72.1911 1.16699H54.4948V22.7896H60.4313V6.54127H71.2604C72.3726 6.54127 72.9717 7.14038 72.9717 8.25536V10.1783C72.9717 11.2878 72.3726 11.8896 71.2604 11.8896H61.2119L63.6725 16.4246H68.3221L72.49 22.791H78.9096L74.6503 16.3045C77.4958 15.4297 78.9096 13.242 78.9096 9.93669V7.65761C78.9096 3.86914 76.6606 1.16699 72.1911 1.16699Z" fill="#1D1D1D"/>
<path d="M105.654 6.60258H88.3453C88.101 6.60258 87.9045 6.7991 87.9045 7.04202V16.9117C87.9045 17.1546 88.101 17.3525 88.3453 17.3525H105.654V22.7882H85.5626C83.1607 22.7882 81.9584 21.287 81.9584 19.184V4.76976C81.9584 2.66809 83.1607 1.16553 85.5626 1.16553H105.654V6.60258ZM105.352 13.9598H90.9096L88.6865 9.84652H103.132L105.352 13.9598Z" fill="#1D1D1D"/>
<path d="M212.733 15.4611V8.49418C212.733 7.20179 212.072 6.54263 210.781 6.54263H199.67V22.7883H193.724V1.16699H212.431C216.606 1.16699 218.678 3.77907 218.678 7.41469V16.5433C218.678 20.1776 216.606 22.7896 212.431 22.7896H203.334L200.512 17.414H210.781C212.072 17.4126 212.733 16.7521 212.733 15.4611Z" fill="#1D1D1D"/>
<path d="M237.986 15.2683C237.986 14.7087 237.531 14.2543 236.972 14.2543H227.543C223.072 14.2543 220.823 11.6845 220.823 8.08711V7.33515C220.823 3.73638 223.073 1.16797 227.543 1.16797H243.677L241.377 6.46718H227.561C227.001 6.46718 226.547 6.92027 226.547 7.48117V8.68759C226.547 9.24712 227.001 9.70158 227.561 9.70158H236.964C241.437 9.70158 243.686 12.2727 243.686 15.8688V16.6207C243.686 20.2195 241.436 22.7879 236.964 22.7879H219.992L222.304 17.4928H236.97C237.53 17.4928 237.984 17.0383 237.984 16.4788V15.2683H237.986Z" fill="#1D1D1D"/>
<path d="M40.7424 3.81849C40.7424 3.81849 39.5387 2.9014 35.7339 1.50119C32.393 0.272944 29.8724 0 29.8724 0L29.8833 7.20573C29.8833 8.22108 29.6049 9.145 28.8298 10.2013C25.9911 9.16684 23.3067 8.53088 20.3739 8.53088H20.3726H20.3712H20.3685H20.3671C17.4343 8.53088 14.7499 9.16684 11.9113 10.2013C11.1348 9.145 10.8577 8.22108 10.8577 7.20573L10.8686 0C10.8686 0 8.348 0.272944 5.00716 1.50119C1.20232 2.9014 0 3.81849 0 3.81849C0.156943 7.08837 3.02013 9.99522 7.53327 12.0014C3.02013 14.0048 0.156943 16.913 0 20.1842C0 20.1842 1.20232 21.1013 5.00716 22.5002C8.348 23.7284 10.8686 24 10.8686 24L10.8577 16.7943C10.8577 15.7803 11.1348 14.855 11.9113 13.8001C14.7499 14.8332 17.433 15.4705 20.3671 15.4705H20.3685H20.3712H20.3739C23.3067 15.4705 25.9911 14.8332 28.8298 13.8001C29.6063 14.8564 29.8833 15.7803 29.8833 16.7943L29.8724 24C29.8724 24 32.3944 23.7271 35.7339 22.5002C39.5387 21.1013 40.7424 20.1842 40.7424 20.1842C40.5855 16.913 37.7209 14.0061 33.2078 12.0014C37.7223 9.99659 40.5855 7.08973 40.7424 3.81849ZM27.0884 12.0014C26.9355 12.1133 26.7554 12.2429 26.5384 12.3985C25.1368 13.3893 23.1034 14.0703 20.4599 14.0703L20.3767 14.0716H20.3726H20.3685L20.2852 14.0703C17.6418 14.0703 15.607 13.3893 14.2068 12.3985C13.9898 12.2429 13.8083 12.1133 13.6554 12.0014C13.8069 11.8881 13.9898 11.7584 14.2068 11.6042C15.607 10.6121 17.6431 9.93245 20.2852 9.93245H20.3685H20.3726H20.3767H20.4599C23.1034 9.93245 25.1382 10.6134 26.5384 11.6042C26.7554 11.7584 26.9355 11.8881 27.0884 12.0014Z" fill="#DC0019"/>
</svg>
