<svg width="24" height="24" viewBox="0 0 24 24" fill="none" xmlns="http://www.w3.org/2000/svg">
<g clip-path="url(#clip0_471_1417)">
<path d="M14.8294 11.9947C14.7654 12.04 14.6894 12.092 14.5974 12.1534C14.0094 12.5534 13.1521 12.8267 12.0388 12.8294L12.0041 12.8307H12.0028H12.0001L11.9654 12.8294C10.8521 12.832 9.99344 12.5614 9.40411 12.164C9.31211 12.1027 9.23611 12.0507 9.17211 12.0054C9.23611 11.96 9.31211 11.908 9.40411 11.8454C9.99211 11.4467 10.8494 11.172 11.9628 11.1694L11.9974 11.168H11.9988H12.0001H12.0348C13.1494 11.1667 14.0068 11.4374 14.5961 11.8334C14.6881 11.8974 14.7641 11.9494 14.8294 11.9947ZM20.5734 8.70138C20.5734 8.70138 20.0668 8.33471 18.4628 7.77604C17.0548 7.28538 15.9921 7.17871 15.9921 7.17871L16.0028 10.0694C16.0041 10.476 15.8868 10.848 15.5614 11.272C14.3654 10.86 13.2334 10.6067 11.9988 10.6094H11.9974H11.9961H11.9948C10.7601 10.612 9.62944 10.8694 8.43478 11.2867C8.10678 10.864 7.98944 10.492 7.98811 10.0867L7.98678 7.19604C7.98678 7.19604 6.92544 7.30804 5.51878 7.80404C3.91878 8.36804 3.41211 8.73738 3.41211 8.73738C3.48144 10.0494 4.68944 11.212 6.59211 12.0134C4.69344 12.8214 3.48944 13.9894 3.42544 15.3014C3.42544 15.3014 3.93211 15.6694 5.53611 16.2267C6.94544 16.716 8.00678 16.824 8.00678 16.824L7.99611 13.9334C7.99478 13.5267 8.11078 13.156 8.43744 12.7307C9.63344 13.1427 10.7654 13.396 12.0001 13.3934H12.0014H12.0028H12.0041C13.2401 13.3907 14.3694 13.1334 15.5641 12.716C15.8921 13.14 16.0094 13.5107 16.0108 13.916V16.8067C16.0108 16.8067 17.0721 16.6947 18.4788 16.2C20.0801 15.636 20.5854 15.2667 20.5854 15.2667C20.5161 13.956 19.3081 12.792 17.4054 11.992C19.3054 11.1814 20.5094 10.0134 20.5734 8.70138Z" fill="#1D1D1D"/>
<path d="M0.0959473 23.9041H7.73328L6.24261 21.6215H2.37328V18.7148L0.0959473 15.2441V23.9041Z" fill="#DC0019"/>
<path d="M23.9039 0.0961914H16.2666L17.7573 2.37886H21.6266V5.28552L23.9039 8.75619V0.0961914Z" fill="#DC0019"/>
</g>
<defs>
<clipPath id="clip0_471_1417">
<rect width="24" height="24" fill="white"/>
</clipPath>
</defs>
</svg>
