<svg xmlns="http://www.w3.org/2000/svg" viewBox="0 0 1148.93 221.05"><g id="Layer_2" data-name="Layer 2"><g id="Afterpay_Logo_Black" data-name="Afterpay Logo Black"><path d="M1131.43,44.62l-34.56-19.83L1061.81,4.67c-23.23-13.33-52.19,3.45-52.19,30.23v4.52a6.9,6.9,0,0,0,3.46,6l16.26,9.33a6.77,6.77,0,0,0,10.14-5.87V38.17a6.89,6.89,0,0,1,10.32-6l32,18.38,31.94,18.33a6.89,6.89,0,0,1,0,11.95l-31.94,18.32-32,18.38a6.89,6.89,0,0,1-10.32-6v-5.31c0-26.79-29-43.56-52.19-30.23L952.23,96.15,917.67,116c-23.34,13.39-23.34,47.07,0,60.46l34.56,19.83,35.06,20.11c23.23,13.33,52.19-3.44,52.19-30.23v-4.52a6.9,6.9,0,0,0-3.46-6l-16.27-9.33a6.76,6.76,0,0,0-10.13,5.87v10.7a6.89,6.89,0,0,1-10.32,6l-32-18.38-31.94-18.33a6.88,6.88,0,0,1,0-11.94l31.94-18.33,32-18.38a6.89,6.89,0,0,1,10.32,6v5.32c0,26.78,29,43.55,52.19,30.22l35.06-20.11,34.56-19.83C1154.77,91.68,1154.77,58,1131.43,44.62Z"/><path d="M904.46,51.24,823.39,218.55H789.75L820,156,772.42,51.24h34.51l30.59,70.17L871,51.24Z"/><path d="M94.57,110.64c0-20-14.49-34-32.31-34s-32.32,14.26-32.32,34c0,19.49,14.49,34,32.32,34s32.31-14,32.31-34m.24,59.41V154.6C86,165.3,73,172,57.27,172,24.71,172,0,145.81,0,110.64,0,75.71,25.66,49.1,58,49.1A47.35,47.35,0,0,1,94.81,66.21v-15H124V170.05Z"/><path d="M266,143.67c-10.22,0-13.07-3.8-13.07-13.78V77.14h18.77V51.24H252.94v-29H223v29H184.43V39.41c0-10,3.8-13.78,14.25-13.78h6.58v-23H190.84c-24.71,0-36.35,8.08-36.35,32.79V51.24H137.85v25.9h16.64v92.91h29.94V77.14H223v58.21c0,24.24,9.26,34.7,33.5,34.7H272V143.67Z"/><path d="M373.41,100C371.27,84.5,358.68,75.24,344,75.24S317.1,84.27,314,100Zm-59.64,18.53c2.14,17.59,14.73,27.57,30.65,27.57,12.6,0,22.34-5.94,28-15.45h30.65C396,155.79,373.41,172,343.71,172c-35.88,0-61.07-25.19-61.07-61.07S309.26,49.1,344.42,49.1c35.41,0,61.07,26.14,61.07,61.78a39.69,39.69,0,0,1-.71,7.6Z"/><path d="M595.9,110.64c0-19.25-14.49-34-32.31-34s-32.32,14.26-32.32,34c0,19.49,14.5,34,32.32,34s32.31-14.73,32.31-34M501.81,218.55V51.24H531V66.68c8.8-10.93,21.87-17.58,37.55-17.58,32.08,0,57.26,26.37,57.26,61.3S600.18,172,567.87,172C552.9,172,540.54,166,532,156v62.52Z"/><path d="M731.16,110.64c0-20-14.49-34-32.32-34s-32.31,14.26-32.31,34c0,19.49,14.49,34,32.31,34s32.32-14,32.32-34m.24,59.41V154.6C722.61,165.3,709.54,172,693.86,172c-32.56,0-57.27-26.14-57.27-61.31,0-34.93,25.66-61.54,58-61.54A47.37,47.37,0,0,1,731.4,66.21v-15h29.23V170.05Z"/><path d="M449.14,62.88S456.57,49.1,474.8,49.1a29.54,29.54,0,0,1,12.83,2.68v30.3s-11-6.79-21.09-5.42-16.49,10.64-16.45,23v70.34H419.91V51.24h29.23Z"/></g></g></svg>