<svg width="156" height="34" viewBox="0 0 156 34" fill="none" xmlns="http://www.w3.org/2000/svg">
<path d="M128.366 7.08305H133.411V25.9718H128.366V24.0414C126.761 25.6651 124.854 26.4589 122.607 26.4589C119.951 26.4589 117.74 25.5027 115.993 23.5904C114.263 21.66 113.408 19.2786 113.408 16.4282C113.408 13.5958 114.299 11.2505 116.028 9.39227C117.758 7.53407 119.986 6.59595 122.607 6.59595C124.854 6.59595 126.761 7.42582 128.366 9.08558V7.08305V7.08305ZM120.093 20.0724C121.02 21.0286 122.144 21.5157 123.534 21.5157C124.925 21.5157 126.048 21.0286 126.975 20.0364C127.902 19.0441 128.366 17.8715 128.366 16.4823C128.366 15.1112 127.884 13.9386 126.975 12.9644C126.048 11.9902 124.925 11.5211 123.534 11.5211C122.144 11.5211 121.02 12.0082 120.093 12.9644C119.202 13.9205 118.756 15.0932 118.756 16.4823C118.756 17.8895 119.202 19.0622 120.093 20.0724Z" fill="#140CA3"/>
<path d="M150.206 7.08301H156L148.601 26.4769C146.694 31.4742 144.18 33.9999 140.186 33.9999C138.653 33.9999 137.387 33.6571 136.406 33.0077L137.387 28.5335C138.207 28.9846 139.027 29.183 139.812 29.183C141.274 29.183 142.504 28.2268 143.431 26.2965L143.663 25.7372L135.515 7.08301H141.684L146.177 18.7735L150.206 7.08301Z" fill="#140CA3"/>
<path d="M108.968 9.48248C107.239 7.55211 105.046 6.59595 102.389 6.59595C100.143 6.59595 98.2354 7.4619 96.7022 9.17578V7.06501H91.5319V31.7449L96.7022 32.9175V24.0414C98.2354 25.6651 100.179 26.4589 102.389 26.4589C105.01 26.4589 107.203 25.5027 108.933 23.5724C110.662 21.642 111.553 19.2967 111.553 16.5004C111.553 13.7221 110.698 11.3768 108.968 9.48248ZM101.391 21.4796C98.6276 21.4796 96.6843 19.3147 96.6843 16.5184C96.6843 15.1473 97.13 13.9746 98.0215 13.0365C98.9129 12.0804 100.036 11.5933 101.391 11.5933C102.782 11.5933 103.905 12.0804 104.796 13.0365C105.688 13.9746 106.133 15.1473 106.133 16.5184C106.133 19.3147 104.154 21.4796 101.391 21.4796Z" fill="#140CA3"/>
<path d="M69.9059 23.5544C71.6352 25.4848 73.8281 26.4409 76.4846 26.4409C78.731 26.4409 80.6387 25.575 82.1719 23.8611V25.9719H87.3422V1.29204L82.1719 0.119385V8.99546C80.6387 7.37179 78.6953 6.57799 76.4846 6.57799C73.8638 6.57799 71.6709 7.53416 69.9415 9.46453C68.2121 11.3949 67.3207 13.7402 67.3207 16.5365C67.3029 19.3148 68.1587 21.6601 69.9059 23.5544ZM77.4652 11.5573C80.2286 11.5573 82.1719 13.7222 82.1719 16.5185C82.1719 17.8896 81.7262 19.0622 80.8348 20.0004C79.9433 20.9565 78.8201 21.4436 77.4652 21.4436C76.0745 21.4436 74.9513 20.9565 74.0599 20.0004C73.1685 19.0622 72.7228 17.8896 72.7228 16.5185C72.7228 13.7222 74.7017 11.5573 77.4652 11.5573Z" fill="#140CA3"/>
<path d="M59.387 7.08305H64.4325V25.9718H59.387V24.0414C57.7824 25.6651 55.8748 26.4589 53.6284 26.4589C50.9719 26.4589 48.7612 25.5027 47.014 23.5904C45.2846 21.66 44.4288 19.2786 44.4288 16.4282C44.4288 13.5958 45.3203 11.2505 47.0496 9.39227C48.779 7.53407 51.0076 6.59595 53.6284 6.59595C55.8748 6.59595 57.7824 7.42582 59.387 9.08558V7.08305ZM51.0967 20.0724C52.0238 21.0286 53.147 21.5157 54.5376 21.5157C55.9283 21.5157 57.0515 21.0286 57.9785 20.0364C58.9056 19.0441 59.3692 17.8715 59.3692 16.4823C59.3692 15.1112 58.8878 13.9386 57.9785 12.9644C57.0515 11.9902 55.9283 11.5211 54.5376 11.5211C53.147 11.5211 52.0238 12.0082 51.0967 12.9644C50.2053 13.9205 49.7596 15.0932 49.7596 16.4823C49.7774 17.8895 50.2053 19.0622 51.0967 20.0724Z" fill="#140CA3"/>
<path d="M24.2112 17.8714V7.08301H29.5598V17.9075C29.5598 20.0724 30.8256 21.4976 32.965 21.4976C35.1044 21.4976 36.3703 20.0904 36.3703 17.9075V7.08301H41.7188V17.8714C41.7188 23.3558 38.4206 26.4588 32.965 26.4588C27.563 26.4408 24.2112 23.2837 24.2112 17.8714Z" fill="#140CA3"/>
<path d="M22.7849 25.9898L21.6974 21.0827H9.7344H9.69875C7.00663 21.0647 4.84937 18.8457 4.84937 16.1215C4.84937 13.3793 7.04229 11.1603 9.75223 11.1603C12.4622 11.1603 14.6551 13.3793 14.6551 16.1215V19.2426H19.5045V15.8689C19.3797 10.5289 15.0651 6.25317 9.75223 6.25317C4.368 6.25317 0 10.6732 0 16.1215C0 21.5698 4.35017 25.9718 9.7344 25.9898H14.6194V31.6546L19.5045 32.7551V25.9898H22.7849V25.9898Z" fill="#140CA3"/>
</svg>
