<svg width="208" height="20" viewBox="0 0 208 20" fill="none" xmlns="http://www.w3.org/2000/svg">
<path d="M132.299 18.8562H137.418V1.19873H130.138H128.671C127.492 1.19873 126.845 1.51857 126.232 2.62147L121.957 10.3197L121.968 10.3087V10.3197L117.254 18.8562H123.135L130.531 5.6324H132.299L132.311 12.338H127.781L130.207 16.0438H132.322V18.8562H132.299Z" fill="white"/>
<path d="M101.827 17.4335L106.091 9.7242L106.264 9.40436V18.8562H112.042C113.221 18.8562 113.868 18.5364 114.48 17.4335L118.744 9.7242L123.459 1.18774H117.577L110.921 13.1322L110.933 7.01106V1.19877H110.806H106.264H105.536L98.8803 13.1432L98.8919 7.01106V1.19877H93.6919V18.8672H99.3772C100.567 18.8562 101.203 18.5364 101.827 17.4335Z" fill="white"/>
<path d="M155.907 1.18774H140.758V18.8562H145.842V5.57729H155.11C156.057 5.57729 156.577 6.06256 156.577 6.97797V8.54409C156.577 9.44847 156.069 9.94477 155.11 9.94477H146.512L148.615 13.6505H152.59L156.161 18.8562H161.65L158.01 13.5513C160.448 12.8344 161.65 11.0477 161.65 8.34557V6.4927C161.662 3.39355 159.732 1.18774 155.907 1.18774Z" fill="white"/>
<path d="M62.1567 1.18774H47.0073V18.8562H52.0918V5.57729H61.3593C62.3069 5.57729 62.8269 6.06256 62.8269 6.97797V8.54409C62.8269 9.44847 62.3184 9.94477 61.3593 9.94477H52.762L54.8651 13.6505H58.8518L62.4225 18.8562H67.9229L64.2829 13.5513C66.7211 12.8344 67.9229 11.0477 67.9229 8.34557V6.4927C67.9113 3.39355 65.9816 1.18774 62.1567 1.18774Z" fill="white"/>
<path d="M90.803 5.63244H75.9887C75.7807 5.63244 75.6074 5.79787 75.6074 5.99639V14.0586C75.6074 14.2571 75.7807 14.4226 75.9887 14.4226H90.803V18.8672H73.6083C71.5514 18.8672 70.5229 17.643 70.5229 15.9225V4.13249C70.5229 2.41196 71.5514 1.18774 73.6083 1.18774H90.803V5.63244ZM90.5487 11.6432H78.1843L76.2776 8.2794H88.6421L90.5487 11.6432Z" fill="white"/>
<path d="M180.601 12.8675V7.17649C180.601 6.11771 180.035 5.57729 178.926 5.57729H169.415V18.8452H164.331V1.18774H180.347C183.918 1.18774 185.697 3.31634 185.697 6.29417V13.7498C185.697 16.7166 183.929 18.8562 180.347 18.8562H172.559L170.143 14.4667H178.937C180.035 14.4556 180.601 13.9152 180.601 12.8675Z" fill="white"/>
<path d="M194.699 5.51116H204.706L207.087 1.17676H193.902C190.077 1.17676 188.147 3.27227 188.147 6.21701V6.83464C188.147 9.76836 190.077 11.8749 193.902 11.8749H200.142C200.951 11.9411 201.401 12.3933 201.401 13.1873C201.401 14.0476 200.881 14.5219 199.934 14.5219H189.222L186.83 18.8452H200.743C204.568 18.8452 206.497 16.7497 206.497 13.805V13.1873C206.497 10.2536 204.568 8.14709 200.743 8.14709H194.503C193.694 8.08092 193.255 7.62873 193.255 6.83464C193.232 5.98541 193.74 5.51116 194.699 5.51116Z" fill="white"/>
<path d="M35.3247 3.39354C35.3247 3.39354 34.3078 2.6546 31.0723 1.51861C28.2411 0.526 26.1034 0.30542 26.1034 0.30542L26.1149 6.13976C26.1149 6.96694 25.8838 7.70588 25.2251 8.56614C22.8216 7.72794 20.5336 7.20958 18.0491 7.20958C15.5647 7.20958 13.2883 7.72794 10.8732 8.56614C10.2145 7.70588 9.98337 6.96694 9.98337 6.13976L9.97182 0.30542C9.97182 0.30542 7.83404 0.526 5.00293 1.51861C1.76738 2.6546 0.750488 3.39354 0.750488 3.39354C0.889155 6.0405 3.31582 8.40071 7.14071 10.022C3.31582 11.6432 0.889155 14.0034 0.750488 16.6504C0.750488 16.6504 1.76738 17.3893 5.00293 18.5253C7.83404 19.5179 9.97182 19.7385 9.97182 19.7385L9.96026 13.9042C9.96026 13.088 10.1914 12.3381 10.85 11.4778C13.2536 12.316 15.53 12.8344 18.026 12.8344C20.5105 12.8344 22.7869 12.316 25.202 11.4778C25.8607 12.3381 26.0918 13.077 26.0918 13.9042L26.0803 19.7385C26.0803 19.7385 28.218 19.5179 31.0491 18.5253C34.2731 17.3893 35.3016 16.6504 35.3016 16.6504C35.1629 14.0034 32.7363 11.6432 28.9114 10.022C32.7594 8.40071 35.186 6.05153 35.3247 3.39354ZM23.7345 10.022C23.6074 10.1102 23.4571 10.2205 23.2723 10.3418C22.082 11.1469 20.3603 11.6984 18.1185 11.6984H18.0491H17.9798C15.738 11.6984 14.0047 11.1469 12.826 10.3418C12.6412 10.2205 12.4909 10.1102 12.3638 10.022C12.4909 9.93374 12.6527 9.82345 12.826 9.70213C14.0163 8.89701 15.738 8.34556 17.9798 8.34556H18.0491H18.1185C20.3603 8.34556 22.0936 8.89701 23.2723 9.70213C23.4571 9.82345 23.6074 9.93374 23.7345 10.022Z" fill="#DC0019"/>
</svg>
