<svg width="89" height="10" viewBox="0 0 89 10" fill="none" xmlns="http://www.w3.org/2000/svg">
<g clip-path="url(#clip0_25053_3504)">
<path d="M56.3004 8.78247H58.4662V1.22266H55.3862H54.7653C54.2666 1.22266 53.9928 1.35959 53.7337 1.83179L51.9248 5.12769L51.9297 5.12297V5.12769L49.9351 8.78247H52.4235L55.5524 3.12087H56.3004L56.3053 5.99181H54.3888L55.4155 7.57837H56.3102V8.78247H56.3004Z" fill="white"/>
<path d="M43.4086 8.1722L45.2126 4.87157L45.2859 4.73464V8.78133H47.7304C48.229 8.78133 48.5028 8.64439 48.7619 8.1722L50.5659 4.87157L52.5606 1.2168H50.0721L47.2561 6.33065L47.261 3.70998V1.22152H47.2072H45.2859H44.9779L42.1619 6.33537L42.1668 3.70998V1.22152H39.9668V8.78605H42.3721C42.8757 8.78133 43.1446 8.64439 43.4086 8.1722Z" fill="white"/>
<path d="M66.2887 1.2168H59.8794V8.78133H62.0305V3.09613H65.9514C66.3523 3.09613 66.5723 3.30389 66.5723 3.69581V4.36633C66.5723 4.75352 66.3572 4.96601 65.9514 4.96601H62.3141L63.2038 6.55258H64.8856L66.3963 8.78133H68.7185L67.1785 6.51008C68.21 6.20316 68.7185 5.4382 68.7185 4.28133V3.48805C68.7234 2.16118 67.9069 1.2168 66.2887 1.2168Z" fill="white"/>
<path d="M26.6252 1.2168H20.2158V8.78133H22.3669V3.09613H26.2878C26.6887 3.09613 26.9087 3.30389 26.9087 3.69581V4.36633C26.9087 4.75352 26.6936 4.96601 26.2878 4.96601H22.6505L23.5403 6.55258H25.2269L26.7376 8.78133H29.0647L27.5247 6.51008C28.5563 6.20316 29.0647 5.4382 29.0647 4.28133V3.48805C29.0598 2.16118 28.2434 1.2168 26.6252 1.2168Z" fill="white"/>
<path d="M38.7446 3.11973H32.477C32.389 3.11973 32.3157 3.19056 32.3157 3.27556V6.72729C32.3157 6.81228 32.389 6.88311 32.477 6.88311H38.7446V8.78605H31.4699C30.5997 8.78605 30.1646 8.26192 30.1646 7.5253V2.47755C30.1646 1.74093 30.5997 1.2168 31.4699 1.2168H38.7446V3.11973ZM38.637 5.69319H33.4059L32.5992 4.253H37.8303L38.637 5.69319Z" fill="white"/>
<path d="M76.7361 6.21732V3.78081C76.7361 3.3275 76.4965 3.09613 76.0272 3.09613H72.0037V8.77661H69.8525V1.2168H76.6285C78.1392 1.2168 78.8921 2.12813 78.8921 3.40305V6.59508C78.8921 7.86528 78.1441 8.78133 76.6285 8.78133H73.3334L72.3116 6.902H76.0321C76.4965 6.89728 76.7361 6.66591 76.7361 6.21732Z" fill="white"/>
<path d="M82.7004 3.06861H86.9342L87.9413 1.21289H82.3631C80.7449 1.21289 79.9284 2.11006 79.9284 3.37081V3.63524C79.9284 4.89127 80.7449 5.79316 82.3631 5.79316H85.0031C85.3453 5.82149 85.536 6.01509 85.536 6.35507C85.536 6.72338 85.316 6.92643 84.9151 6.92643H80.3831L79.3711 8.77742H85.2573C86.8755 8.77742 87.692 7.88025 87.692 6.6195V6.35507C87.692 5.09904 86.8755 4.19715 85.2573 4.19715H82.6173C82.2751 4.16882 82.0893 3.97522 82.0893 3.63524C82.0795 3.27165 82.2947 3.06861 82.7004 3.06861Z" fill="white"/>
<path d="M15.2731 2.16198C15.2731 2.16198 14.8428 1.84561 13.474 1.35926C12.2762 0.934282 11.3717 0.839844 11.3717 0.839844L11.3766 3.33774C11.3766 3.69189 11.2788 4.00826 11.0002 4.37657C9.98329 4.0177 9.01529 3.79577 7.96418 3.79577C6.91307 3.79577 5.94995 4.0177 4.92818 4.37657C4.64951 4.00826 4.55173 3.69189 4.55173 3.33774L4.54684 0.839844C4.54684 0.839844 3.6424 0.934282 2.44462 1.35926C1.07573 1.84561 0.645508 2.16198 0.645508 2.16198C0.704175 3.29525 1.73084 4.30574 3.34906 4.99986C1.73084 5.69399 0.704175 6.70448 0.645508 7.83774C0.645508 7.83774 1.07573 8.15411 2.44462 8.64047C3.6424 9.06544 4.54684 9.15988 4.54684 9.15988L4.54195 6.66198C4.54195 6.31256 4.63973 5.99147 4.9184 5.62316C5.93529 5.98202 6.8984 6.20396 7.9544 6.20396C9.00551 6.20396 9.96862 5.98202 10.9904 5.62316C11.2691 5.99147 11.3668 6.30784 11.3668 6.66198L11.362 9.15988C11.362 9.15988 12.2664 9.06544 13.4642 8.64047C14.8282 8.15411 15.2633 7.83774 15.2633 7.83774C15.2046 6.70448 14.178 5.69399 12.5597 4.99986C14.1877 4.30574 15.2144 3.29997 15.2731 2.16198ZM10.3695 4.99986C10.3157 5.03764 10.2522 5.08486 10.174 5.1368C9.6704 5.4815 8.94196 5.7176 7.99351 5.7176H7.96418H7.93484C6.9864 5.7176 6.25307 5.4815 5.7544 5.1368C5.67618 5.08486 5.61262 5.03764 5.55884 4.99986C5.61262 4.96209 5.68107 4.91487 5.7544 4.86293C6.25795 4.51823 6.9864 4.28213 7.93484 4.28213H7.96418H7.99351C8.94196 4.28213 9.67529 4.51823 10.174 4.86293C10.2522 4.91487 10.3157 4.96209 10.3695 4.99986Z" fill="white"/>
</g>
<defs>
<clipPath id="clip0_25053_3504">
<rect width="88" height="9" fill="white" transform="translate(0.293945 0.5)"/>
</clipPath>
</defs>
</svg>
