<?xml version="1.0" encoding="UTF-8"?><svg id="Layer_1" xmlns="http://www.w3.org/2000/svg" viewBox="0 0 1800 342.96"><defs><style>.cls-1{fill:#e60e16;}.cls-2{fill:#0c0d0d;}</style></defs><g><path class="cls-2" d="M1117.31,242.91h40.08V98.11h-68.47c-9.26,0-14.28,2.62-19.11,11.67l-33.39,63.15,.1-.08-.04,.07-36.91,69.99h45.99l57.84-108.44h13.8l.1,55h-35.48l18.94,30.37h16.55v23.07Z"/><path class="cls-2" d="M878.87,231.25l33.39-63.15,1.4-2.65v77.46h45.23c9.26,0,14.28-2.62,19.11-11.67l33.4-63.15,36.91-69.99h-45.99l-52.04,97.94-.11-50.28v-47.66h-42.2l-52.04,97.94,.05-50.28v-47.66h-40.71V242.91h44.49c9.26,0,14.28-2.62,19.11-11.67"/><path class="cls-2" d="M1302.01,98.05h-118.53V242.85h39.78v-108.81h72.51c7.45,0,11.46,4.02,11.46,11.48v12.87c0,7.43-4.01,11.46-11.46,11.46h-67.29l16.48,30.37h31.13l27.94,42.63h42.98l-28.52-43.44c19.06-5.86,28.52-20.51,28.52-42.64v-15.26c0-25.36-15.07-43.46-44.99-43.46"/><path class="cls-2" d="M568.56,98.05h-118.52V242.85h39.76v-108.81h72.52c7.45,0,11.46,4.02,11.46,11.48v12.87c0,7.43-4.01,11.46-11.46,11.46h-67.28l16.48,30.37h31.14l27.91,42.63h42.99l-28.52-43.44c19.05-5.86,28.52-20.51,28.52-42.64v-15.26c0-25.36-15.07-43.46-45-43.46"/><path class="cls-2" d="M792.65,134.45h-115.91c-1.64,0-2.95,1.32-2.95,2.94v66.1c0,1.63,1.31,2.95,2.95,2.95h115.91v36.4h-134.54c-16.08,0-24.13-10.06-24.13-24.14V122.18c0-14.07,8.05-24.13,24.13-24.13h134.54v36.4Zm-2.02,49.27h-96.72l-14.89-27.55h96.74l14.87,27.55Z"/><path class="cls-2" d="M1495.18,193.78v-46.66c0-8.65-4.43-13.07-13.07-13.07h-74.41v108.79h-39.81V98.05h125.28c27.95,0,41.82,17.49,41.82,41.84v61.13c0,24.34-13.87,41.83-41.82,41.83h-60.93l-18.9-36h68.77c8.64,0,13.07-4.43,13.07-13.07"/><path class="cls-2" d="M1605.45,133.53h78.31l18.64-35.49h-103.19c-29.94,0-45.01,17.21-45.01,41.3v5.04c0,24.09,15.07,41.3,45.01,41.3h48.8c6.36,.56,9.81,4.27,9.81,10.79,0,7.07-4.03,10.9-11.46,10.9h-83.84l-18.73,35.47h108.8c29.95,0,45.02-17.21,45.02-41.3v-5.04c0-24.09-15.07-41.3-45.02-41.3h-48.8c-6.35-.54-9.79-4.25-9.79-10.77,0-7.08,4.01-10.9,11.46-10.9"/><path class="cls-2" d="M371.25,116.16s-7.99-6.09-33.24-15.38c-22.18-8.16-38.92-9.96-38.92-9.96l.08,47.83c0,6.74-1.85,12.88-7,19.89-18.84-6.86-36.66-11.09-56.13-11.09h-.05c-19.47,0-37.29,4.22-56.13,11.09-5.15-7.01-7-13.15-7-19.89l.08-47.83s-16.74,1.81-38.92,9.96c-25.26,9.29-33.24,15.38-33.24,15.38,1.05,21.71,20.05,41.01,50.02,54.32-29.96,13.3-48.97,32.6-50.02,54.32,0,0,7.99,6.09,33.24,15.38,22.18,8.15,38.92,9.96,38.92,9.96l-.08-47.83c0-6.73,1.84-12.87,7-19.88,18.84,6.86,36.66,11.09,56.13,11.09h.05c19.47,0,37.29-4.23,56.13-11.09,5.15,7.01,7,13.15,7,19.88l-.08,47.83s16.74-1.81,38.92-9.96c25.26-9.29,33.24-15.38,33.24-15.38-1.04-21.71-20.05-41.02-50.01-54.32,29.96-13.31,48.97-32.6,50.01-54.32m-90.65,54.32c-1.01,.75-2.21,1.61-3.65,2.64-9.3,6.58-22.8,11.1-40.35,11.1h-1.17c-17.55,0-31.05-4.52-40.35-11.1-1.44-1.03-2.65-1.89-3.66-2.64,1.01-.75,2.22-1.61,3.66-2.64,9.3-6.58,22.81-11.1,40.35-11.1h1.17c17.55,0,31.05,4.52,40.35,11.1,1.44,1.03,2.64,1.88,3.65,2.64"/></g><g><polygon class="cls-1" points="0 342.96 165.43 342.96 139.32 303.08 39.89 303.08 39.89 216.89 0 155.96 0 342.96"/><polygon class="cls-1" points="1800 0 1634.57 0 1660.68 39.88 1760.11 39.88 1760.11 126.07 1800 187 1800 0"/></g></svg>