<?xml version="1.0" encoding="utf-8"?>
<!-- Generator: Adobe Illustrator 15.1.0, SVG Export Plug-In . SVG Version: 6.00 Build 0)  -->
<!DOCTYPE svg PUBLIC "-//W3C//DTD SVG 1.1//EN" "http://www.w3.org/Graphics/SVG/1.1/DTD/svg11.dtd">
<svg version="1.1" id="Layer_1" xmlns="http://www.w3.org/2000/svg" xmlns:xlink="http://www.w3.org/1999/xlink" x="0px" y="0px"
	 width="212.5px" height="128.5px" viewBox="0 0 212.5 128.5" enable-background="new 0 0 212.5 128.5" xml:space="preserve">
<g>
	<g>
		<path fill="#231F20" d="M171.777,64.314c22.859-10.055,37.785-25.149,38.596-41.9c0,0-6.027-4.649-25.505-11.812
			c-17.116-6.295-30.161-7.739-30.161-7.739l0.059,37.324c0,5.58-2.24,11.281-6.475,16.321c-12.932-3.126-27.208-4.887-42.192-4.891
			c-0.003,0-0.005,0-0.005,0c-0.004,0-0.005,0-0.007,0c-15.003,0.004-29.296,1.769-42.238,4.902
			c-4.239-5.043-6.484-10.75-6.484-16.333l0.058-37.324c0,0-13.044,1.444-30.161,7.739C7.783,17.764,1.756,22.414,1.756,22.414
			c0.81,16.758,15.747,31.86,38.623,41.912C17.521,74.38,2.593,89.475,1.782,106.227c0,0,6.028,4.65,25.507,11.814
			c17.114,6.291,30.161,7.736,30.161,7.736l-0.06-37.324c0-5.581,2.243-11.28,6.477-16.32c12.931,3.125,27.206,4.887,42.193,4.891
			c0.002,0,0.005,0,0.005,0c0.003,0,0.006,0,0.006,0c15.003-0.004,29.295-1.769,42.238-4.901c4.238,5.043,6.482,10.748,6.482,16.332
			l-0.057,37.323c0,0,13.045-1.444,30.158-7.735c19.48-7.164,25.508-11.813,25.508-11.813
			C209.591,89.469,194.652,74.368,171.777,64.314z M106.499,72.709l-0.425,0.006h-0.018l-0.425-0.006
			c-13.535,0-24.568-3.316-32.659-8.38c8.091-5.074,19.134-8.398,32.684-8.398l0.427-0.006h0.019l0.425,0.006
			c13.536,0,24.569,3.317,32.657,8.382C131.092,69.385,120.051,72.709,106.499,72.709z"/>
	</g>
</g>
</svg>
