<svg width="41" height="40" viewBox="0 0 41 40" xmlns="http://www.w3.org/2000/svg">
    <g fill="#1D1D1D" fill-rule="nonzero">
        <path d="M8.008 14.043c.46-.545.77-1.278.689-2.026-.672.032-1.492.421-1.967.967-.426.468-.803 1.23-.705 1.948.754.062 1.508-.359 1.983-.889M8.688 15.072c-1.095-.062-2.026.59-2.55.59-.523 0-1.324-.56-2.19-.544a3.256 3.256 0 0 0-2.746 1.585c-1.177 1.927-.31 4.786.834 6.355.556.777 1.226 1.632 2.108 1.601.834-.03 1.16-.513 2.174-.513 1.013 0 1.308.513 2.19.498.916-.016 1.488-.777 2.044-1.554.637-.886.898-1.74.915-1.787-.017-.016-1.765-.653-1.782-2.565-.016-1.6 1.373-2.361 1.439-2.408-.785-1.103-2.01-1.227-2.436-1.258"/>
        <g>
            <path d="M18.225 12.906c2.38 0 4.038 1.559 4.038 3.829 0 2.278-1.692 3.845-4.098 3.845h-2.636v3.983h-1.904V12.906h4.6zm-2.696 6.155h2.185c1.658 0 2.602-.848 2.602-2.318 0-1.47-.944-2.31-2.593-2.31h-2.194v4.628zM22.76 22.147c0-1.486 1.199-2.399 3.325-2.512l2.448-.137v-.655c0-.945-.672-1.51-1.794-1.51-1.063 0-1.726.484-1.887 1.244h-1.735c.102-1.535 1.48-2.666 3.69-2.666 2.168 0 3.554 1.09 3.554 2.795v5.857H28.6v-1.398h-.042c-.519.945-1.65 1.543-2.823 1.543-1.751 0-2.976-1.034-2.976-2.56zm5.773-.767v-.67l-2.202.129c-1.097.072-1.717.533-1.717 1.26 0 .743.646 1.228 1.632 1.228 1.284 0 2.287-.84 2.287-1.947zM32.022 27.689v-1.414c.136.032.442.032.595.032.85 0 1.31-.339 1.59-1.211 0-.016.162-.517.162-.525l-3.23-8.507h1.988l2.262 6.915h.034l2.262-6.915h1.938l-3.35 8.943c-.765 2.06-1.65 2.722-3.503 2.722-.153 0-.612-.016-.748-.04z"/>
        </g>
    </g>
</svg>
