<svg width="200" height="20" viewBox="0 0 200 20" fill="none" xmlns="http://www.w3.org/2000/svg">
<path d="M127.008 18.8953H131.967V0.881154H123.433C122.933 0.829831 122.429 0.943859 121.999 1.20581C121.57 1.46777 121.238 1.86324 121.054 2.33177L116.91 10.1727L112.331 18.8669H118.02L125.206 5.39418H126.923V12.2301H122.514L124.865 16.0226H126.923L127.008 18.8953Z" fill="white"/>
<path d="M97.3796 17.4453L101.532 9.60437L101.703 9.27253V18.8959H107.316C107.815 18.9467 108.317 18.8323 108.746 18.5703C109.174 18.3082 109.504 17.9131 109.686 17.4453L113.839 9.60437L118.428 0.910156H112.739L106.273 13.0745V0.910156H101.03L94.5637 13.0745V0.910156H89.5103V18.9243H94.9904C95.4897 18.9751 95.992 18.8607 96.4201 18.5987C96.8482 18.3367 97.1786 17.9415 97.3606 17.4737" fill="white"/>
<path d="M149.981 0.900391H135.229V18.9146H140.168V5.37549H149.175C149.368 5.35071 149.564 5.37044 149.748 5.43315C149.931 5.49586 150.098 5.59988 150.236 5.73723C150.373 5.87457 150.477 6.04158 150.54 6.22542C150.603 6.40925 150.622 6.60502 150.597 6.79767V8.39998C150.62 8.59225 150.599 8.7872 150.536 8.97016C150.473 9.15312 150.368 9.31931 150.232 9.45622C150.095 9.59314 149.928 9.6972 149.745 9.76059C149.563 9.82397 149.368 9.84502 149.175 9.82215H140.813L142.861 13.6146H146.729L150.199 18.9051H155.537L152.001 13.5103C154.361 12.7803 155.537 10.9599 155.537 8.21036V6.31413C155.537 3.16639 153.641 0.919353 149.953 0.919353" fill="white"/>
<path d="M58.8292 0.900391H44.105V18.9146H49.0447V5.37549H58.0612C58.2535 5.35262 58.4485 5.37368 58.6314 5.43706C58.8144 5.50045 58.9806 5.60451 59.1175 5.74143C59.2544 5.87834 59.3585 6.04453 59.4218 6.22749C59.4852 6.41044 59.5063 6.6054 59.4834 6.79767V8.39998C59.5063 8.59225 59.4852 8.7872 59.4218 8.97016C59.3585 9.15312 59.2544 9.31931 59.1175 9.45622C58.9806 9.59314 58.8144 9.6972 58.6314 9.76059C58.4485 9.82397 58.2535 9.84502 58.0612 9.82215H49.6989L51.7468 13.6146H55.6151L59.0852 18.9051H64.4231L60.8582 13.4914C63.2285 12.7613 64.4041 10.9409 64.4041 8.1914V6.29517C64.4041 3.14742 62.5079 0.900391 58.8102 0.900391" fill="white"/>
<path d="M86.6754 5.42407H72.2356C72.1867 5.42276 72.1381 5.43143 72.0926 5.44955C72.0471 5.46768 72.0059 5.49486 71.9713 5.52946C71.9367 5.56406 71.9095 5.60535 71.8914 5.6508C71.8732 5.69625 71.8646 5.74492 71.8659 5.79383V14.0045C71.8659 14.0526 71.8755 14.1003 71.8942 14.1446C71.9129 14.1889 71.9403 14.2291 71.9747 14.2627C72.0092 14.2963 72.05 14.3226 72.0948 14.3401C72.1397 14.3577 72.1875 14.3661 72.2356 14.3648H86.6375V18.8873H69.9602C69.5569 18.9251 69.1502 18.8737 68.769 18.7367C68.3878 18.5996 68.0414 18.3803 67.7545 18.0944C67.4677 17.8084 67.2473 17.4627 67.109 17.082C66.9708 16.7012 66.9181 16.2947 66.9546 15.8913V3.85968C66.9181 3.45625 66.9708 3.04972 67.109 2.66897C67.2473 2.28821 67.4677 1.94256 67.7545 1.65658C68.0414 1.3706 68.3878 1.1513 68.769 1.01425C69.1502 0.877208 69.5569 0.825785 69.9602 0.863632H86.6754V5.42407ZM86.4574 11.5489H74.4068L72.558 8.12619H84.5611L86.4574 11.5489Z" fill="white"/>
<path d="M173.949 12.7909V6.99787C173.979 6.77797 173.958 6.55416 173.887 6.3439C173.816 6.13364 173.697 5.94261 173.54 5.7857C173.383 5.62878 173.192 5.51022 172.982 5.43926C172.772 5.3683 172.548 5.34685 172.328 5.37659H163.084V18.8872H158.135V0.873047H173.684C177.154 0.873047 178.88 3.04423 178.88 6.06872V13.6536C178.88 16.6781 177.154 18.8493 173.684 18.8493H166.099L163.748 14.3837H172.281C172.501 14.4138 172.726 14.3922 172.937 14.3208C173.148 14.2493 173.34 14.1298 173.497 13.9718C173.654 13.8138 173.773 13.6214 173.843 13.41C173.913 13.1985 173.933 12.9736 173.902 12.7529" fill="white"/>
<path d="M187.65 5.30912H197.387L199.7 0.900391H186.872C183.156 0.900391 181.278 3.03365 181.278 6.02969V6.70285C181.278 9.6989 183.175 11.8322 186.872 11.8322H192.931C193.102 11.8313 193.272 11.8665 193.429 11.9355C193.586 12.0046 193.727 12.1058 193.842 12.2328C193.958 12.3598 194.045 12.5096 194.099 12.6725C194.152 12.8354 194.171 13.0078 194.154 13.1785C194.171 13.3668 194.146 13.5566 194.08 13.7337C194.014 13.9108 193.908 14.0706 193.771 14.2011C193.634 14.3315 193.47 14.4293 193.29 14.487C193.11 14.5447 192.919 14.5609 192.732 14.5343H182.302L179.979 18.9335H193.5C197.226 18.9335 199.093 16.8003 199.093 13.8042V13.1785C199.093 10.1824 197.197 8.04918 193.5 8.04918H187.441C187.27 8.05173 187.099 8.01756 186.942 7.94896C186.785 7.88036 186.644 7.77891 186.529 7.65141C186.414 7.52391 186.328 7.37331 186.276 7.20972C186.224 7.04612 186.207 6.8733 186.228 6.70285C186.208 6.51416 186.232 6.3235 186.298 6.1455C186.363 5.9675 186.469 5.80689 186.606 5.67599C186.743 5.54509 186.909 5.44738 187.09 5.39036C187.271 5.33334 187.462 5.31853 187.65 5.34705" fill="white"/>
<path d="M34.3109 3.14774C33.0167 2.34709 31.6282 1.71015 30.1771 1.25151C28.6162 0.660003 26.9945 0.243445 25.3417 0.00947956V5.94468C25.3408 6.84314 25.0368 7.71501 24.4789 8.41926C22.2545 7.54386 19.8909 7.075 17.5008 7.03501C15.1105 7.07376 12.7467 7.54267 10.5227 8.41926C9.96543 7.71465 9.66152 6.84301 9.65988 5.94468V0C8.01034 0.234651 6.39185 0.6512 4.83398 1.24203C3.38291 1.70067 1.99437 2.33761 0.700195 3.13826C0.832931 5.84039 3.19373 8.23912 6.91035 9.88884C3.19373 11.5386 0.832931 13.9373 0.700195 16.6394C1.9916 17.4452 3.38081 18.0825 4.83398 18.5357C6.3911 19.133 8.00961 19.5559 9.65988 19.7966V13.852C9.66338 12.9552 9.97088 12.0862 10.5321 11.3869C12.7581 12.2557 15.1211 12.7212 17.5103 12.7616C19.8994 12.7204 22.2622 12.2549 24.4884 11.3869C25.0476 12.0867 25.3519 12.9561 25.3512 13.852V19.7966C27.004 19.5627 28.6257 19.1461 30.1866 18.5546C31.6397 18.1014 33.029 17.4642 34.3204 16.6584C34.1876 13.9563 31.8268 11.5575 28.1102 9.90781C31.8268 8.25809 34.1876 5.85935 34.3204 3.15722L34.3109 3.14774ZM23.0567 9.90781L22.6017 10.2396C21.1147 11.2032 19.3661 11.6834 17.5956 11.6144H17.4439C15.6729 11.6872 13.9233 11.2067 12.4379 10.2396L11.9828 9.90781L12.4379 9.58545C13.9222 8.61505 15.6719 8.13122 17.4439 8.2012H17.5956C19.3635 8.11998 21.113 8.59047 22.6017 9.54752L23.0567 9.86988" fill="#DC0019"/>
</svg>
