<svg xmlns="http://www.w3.org/2000/svg" width="24" height="16" viewBox="0 0 24 16">
    <g fill="none" fill-rule="evenodd">
        <rect width="23" height="15" x=".5" y=".5" fill="#216EA9" stroke="#D0D0D0" rx="1"/>
        <rect width="15.98" height="14" x="4.01" y="1" fill="#FFF" rx="1"/>
        <g fill="#216EA9">
            <path d="M13.993 11.499l-.297-.386v.386H12.46v-.729c-.17.068-.369.106-.586.106h-.066v.623h-1.753l-.275-.389-.27.389H6.683V8.712h2.838l.272.38.273-.38H20V1H4v5.263l.548-1.28h1.14l.253.586v-.585H7.35l.179.506.176-.506h6.055v.224c.228-.154.511-.224.812-.224h1.874l.253.585v-.585h1.15l.268.435v-.435h1.25V7.77h-1.181l-.25-.41v.41H16.21l-.16-.41h-.336l-.157.41h-1.015c-.25 0-.54-.047-.782-.206v.206h-1.734l-.297-.385v.385H5.45l-.16-.41h-.335l-.157.41H4V15h16v-3.667c-.17.105-.384.166-.62.166h-5.387z"/>
            <path d="M8.65 9.508v-.395H7.122v1.92H8.65v-.39H7.575v-.38h1.05v-.388h-1.05v-.367H8.65zm1.592 1.525h.565l-.774-.968.768-.952h-.548l-.478.622-.474-.622h-.566l.771.96-.768.96h.549l.477-.628.478.628zm.655-1.92v1.92h.453v-.636h.582c.42 0 .677-.275.677-.642 0-.382-.252-.642-.66-.642h-1.052zm1.257.644c0 .132-.082.24-.247.24h-.557v-.484h.557c.165 0 .247.107.247.244zm1.16.571h.215l.584.705h.565l-.634-.721c.324-.06.516-.291.516-.596 0-.354-.252-.603-.661-.603h-1.037v1.92h.452v-.705zm.544-.815c.164 0 .247.099.247.22 0 .12-.083.22-.247.22h-.544v-.44h.544zm2.483-.005v-.395h-1.528v1.92h1.528v-.39h-1.076v-.38h1.051v-.388h-1.05v-.367h1.075zm1.234 1.125h-.98v.4h.964c.414 0 .661-.252.661-.609 0-.346-.225-.549-.598-.549h-.436c-.113 0-.192-.074-.192-.183 0-.107.08-.179.192-.179h.823l.178-.4h-.985c-.411 0-.661.252-.661.598 0 .356.236.557.598.557h.436c.113 0 .192.071.192.186 0 .107-.08.179-.192.179zm1.767 0h-.98v.4h.964c.414 0 .661-.252.661-.609 0-.346-.225-.549-.598-.549h-.436c-.113 0-.192-.074-.192-.183 0-.107.08-.179.192-.179h.823l.178-.4h-.985c-.411 0-.661.252-.661.598 0 .356.236.557.598.557h.436c.113 0 .192.071.192.186 0 .107-.08.179-.192.179zM5.743 7.318h.505l-.82-1.92h-.599l-.823 1.92h.47l.161-.406h.941l.165.406zm-.777-1.223l.14-.376.143.376.19.466h-.66l.187-.466zm1.8-.036l-.016-.442.14.442.403 1.26h.42l.406-1.26.14-.445-.017.445-.005 1.26h.425V5.397h-.713l-.327 1.006-.118.431-.118-.43-.326-1.007h-.716v1.92h.428l-.006-1.26zm3.792-.266v-.395H9.03v1.92h1.528v-.39H9.482v-.38h1.051V6.16h-1.05v-.367h1.075zm.77.82h.215l.584.705h.565l-.633-.721c.323-.06.516-.291.516-.596 0-.354-.253-.603-.662-.603h-1.037v1.92h.453v-.705zm.544-.815c.165 0 .247.099.247.22 0 .12-.082.22-.247.22h-.543v-.44h.543zm.955 1.52h.453v-1.92h-.453v1.92zm1.619 0h.022l.186-.403h-.137c-.318 0-.505-.198-.505-.544v-.027c0-.31.17-.54.5-.54h.493v-.406h-.53c-.59 0-.916.397-.916.94v.04c0 .564.332.935.887.94zm1.997 0h.505l-.82-1.92h-.599l-.823 1.92h.47l.161-.406h.941l.165.406zm-.776-1.223l.14-.376.142.376.19.466h-.659l.187-.466zm1.81.156l-.013-.321.183.313.675 1.075h.524v-1.92h-.428v1.02l.014.324-.186-.318-.65-1.026h-.552v1.92h.433V6.251z"/>
        </g>
    </g>
</svg>
