<svg xmlns="http://www.w3.org/2000/svg" xmlns:xlink="http://www.w3.org/1999/xlink" width="35" height="24" viewBox="0 0 35 24"><defs><path id="a" d="M0 .257v18.207h29.208V.257H0z"/></defs><g fill="none" fill-rule="evenodd"><path fill="#1C1C1C" d="M14.303 15.115h-.022c-.693 0-1.258-.17-1.672-.43.414-.26.98-.43 1.673-.43h.044c.694 0 1.258.17 1.673.43-.415.26-.98.43-1.674.43h-.022zm3.365-.43c1.17-.515 1.935-1.288 1.976-2.146 0 0-.308-.238-1.306-.605a7.295 7.295 0 0 0-1.545-.396l.004 1.912c0 .285-.115.576-.331.834a9.274 9.274 0 0 0-2.161-.25c-.77 0-1.502.09-2.165.25-.216-.257-.33-.549-.33-.834l.002-1.912s-.668.074-1.544.396c-.998.367-1.306.605-1.306.605.041.858.806 1.632 1.977 2.147-1.17.514-1.935 1.287-1.976 2.145 0 0 .309.238 1.306.605a7.29 7.29 0 0 0 1.545.396l-.003-1.911c0-.286.114-.577.33-.835.663.16 1.394.25 2.161.25h.001c.768 0 1.5-.09 2.164-.25.216.257.331.55.331.835l-.003 1.91s.668-.073 1.545-.395c.997-.367 1.306-.605 1.306-.605-.042-.858-.807-1.631-1.978-2.146z"/><g transform="translate(0 5.324)"><mask id="b" fill="#fff"><use xlink:href="#a"/></mask><path fill="#1D1D1D" d="M.909 1.015a.153.153 0 0 0-.151.15v16.39c0 .083.069.152.15.152H28.3a.153.153 0 0 0 .151-.151V1.166a.152.152 0 0 0-.15-.15H.908zm27.39 17.45H.91a.91.91 0 0 1-.91-.91V1.166A.91.91 0 0 1 .91.258H28.3a.91.91 0 0 1 .91.909v16.39a.91.91 0 0 1-.91.908z" mask="url(#b)"/></g><path fill="#1D1D1D" d="M29.117 6.1a.9.9 0 0 1 .091.39v.391l4.498.68-.358 2.312-4.14-.619v.767l4.023.6-1.663 10.71a.152.152 0 0 1-.061.1.143.143 0 0 1-.112.027l-2.187-.34v.767l2.071.322a.901.901 0 0 0 .675-.165.9.9 0 0 0 .362-.594l2.516-16.195a.903.903 0 0 0-.165-.676.903.903 0 0 0-.593-.362L7.007.011a.902.902 0 0 0-.675.165.902.902 0 0 0-.362.593l-.747 4.812h.767l.336-2.163L20.62 5.581h5.064L6.373 2.66c-.018-.003-.036-.003-.054-.003a.374.374 0 0 1 .085.003l.039.006.276-1.78A.15.15 0 0 1 6.891.76l27.066 4.204a.15.15 0 0 1 .098.06.15.15 0 0 1 .028.112l-.26 1.672"/></g></svg>