<?xml version="1.0" encoding="UTF-8" standalone="no"?>
<svg width="40px" height="32px" viewBox="0 0 40 32" version="1.1" xmlns="http://www.w3.org/2000/svg" xmlns:xlink="http://www.w3.org/1999/xlink">
    <!-- Generator: sketchtool 41.2 (35397) - http://www.bohemiancoding.com/sketch -->
    <title>FD567A1C-4BB2-47F2-B2C0-598AD4A4AC81</title>
    <desc>Created with sketchtool.</desc>
    <defs></defs>
    <g id="*Icons" stroke="none" stroke-width="1" fill="none" fill-rule="evenodd">
        <g id="Icons" transform="translate(-79.000000, -169.000000)" fill="#ffffff">
            <g id="Chat" transform="translate(79.000000, 169.000000)">
                <path d="M13.087399,22.2600696 C14.7968453,26.19794 20.0431489,29.0648567 26.25,29.0648567 C27.6303672,29.0648567 28.9632265,28.9230615 30.2202401,28.6592255 L36.4462553,31.902545 L35.689094,26.449555 C38.3435039,24.7020249 40,22.2256852 40,19.479638 C40,15.3990648 36.3422267,11.914043 31.1876546,10.5310025 C31.2289226,10.8537229 31.25,11.1804931 31.25,11.5106952 C31.25,17.526343 24.2544492,22.4029892 15.625,22.4029892 C14.7609584,22.4029892 13.9132974,22.3540987 13.087399,22.2600696 Z" id="Combined-Shape"></path>
                <path d="M18.5257056,19.617752 C17.211555,19.8935804 15.8181112,20.0418209 14.375,20.0418209 C6.43590672,20.0418209 0,15.5553065 0,10.0209105 C0,4.48651443 6.43590672,0 14.375,0 C22.3140933,0 28.75,4.48651443 28.75,10.0209105 C28.75,12.891778 27.0182086,15.4806786 24.2431438,17.3076419 L25.0347215,23.0084951 L18.5257056,19.617752 Z" id="Combined-Shape-Copy-2" transform="translate(14.375000, 11.504248) scale(-1, 1) translate(-14.375000, -11.504248) "></path>
            </g>
        </g>
    </g>
</svg>