<svg xmlns="http://www.w3.org/2000/svg" xmlns:xlink="http://www.w3.org/1999/xlink" width="24" height="16" viewBox="0 0 24 16">
    <defs>
        <rect id="a" width="22" height="13" rx=".987"/>
        <path id="b" d="M6 13h16V7s-5.65 4.145-16 6z"/>
    </defs>
    <g fill="none" fill-rule="evenodd">
        <g transform="translate(1 2)">
            <use fill="#FFF" xlink:href="#a"/>
            <use fill="#E6772F" xlink:href="#b"/>
        </g>
        <path fill="#1A1919" d="M5 8.425c-.163.138-.372.199-.707.199h-.139v-1.65h.14c.334 0 .535.056.707.201a.82.82 0 0 1 .284.62c0 .241-.106.481-.284.63zm-.603-1.874h-.76v2.496h.755c.402 0 .691-.09.945-.289.302-.235.481-.59.481-.959 0-.736-.584-1.248-1.421-1.248zM6.056 6.55h.515v2.497h-.515zM7.835 7.507c-.31-.107-.401-.179-.401-.313 0-.157.162-.276.385-.276.155 0 .282.058.418.2l.269-.331a1.195 1.195 0 0 0-.778-.278c-.469 0-.826.307-.826.714 0 .345.166.52.65.686.203.066.306.112.359.143a.294.294 0 0 1 .154.257c0 .203-.17.352-.401.352a.615.615 0 0 1-.564-.334l-.333.304c.238.33.524.476.917.476.536 0 .914-.338.914-.82 0-.397-.175-.577-.763-.78M8.76 7.8c0 .733.611 1.302 1.398 1.302.222 0 .413-.041.647-.145v-.574c-.207.196-.389.273-.624.273-.52 0-.888-.354-.888-.86 0-.478.38-.857.865-.857.245 0 .433.082.647.28v-.572a1.385 1.385 0 0 0-.636-.153c-.782 0-1.409.58-1.409 1.305M14.99 8.226l-.707-1.675h-.563l1.123 2.559h.277l1.144-2.56h-.558l-.717 1.676M16.499 9.047h1.464v-.423h-.948V7.95h.912v-.423h-.912v-.554h.948v-.422H16.5v2.496M18.972 7.698h-.15v-.754h.159c.322 0 .495.127.495.37 0 .25-.173.384-.504.384zm1.036-.41c0-.468-.34-.737-.937-.737h-.767v2.496h.518V8.043h.067l.714 1.004h.635l-.833-1.052c.39-.075.603-.326.603-.708z"/>
        <path fill="#E6772F" d="M13.793 7.805c0 .719-.618 1.301-1.38 1.301-.763 0-1.381-.582-1.381-1.3 0-.72.618-1.302 1.38-1.302.763 0 1.38.582 1.38 1.301"/>
        <rect width="23" height="15" x=".5" y=".5" stroke="#D0D0D0" rx="1"/>
    </g>
</svg>
