<svg xmlns="http://www.w3.org/2000/svg" width="45" height="10" viewBox="0 0 45 10">
    <g fill="none" fill-rule="evenodd">
        <g fill="#1D1D1D" fill-rule="nonzero">
            <path d="M59.096 1077.399c-.337.001-.659.136-.896.375-.237.24-.369.563-.367.9-.002.336.13.66.367.899s.56.374.896.375c.696 0 1.263-.57 1.263-1.275.002-.336-.13-.66-.367-.899s-.56-.374-.896-.375zm-4.156-.985c0-.964-.816-1.744-1.823-1.744-1.006 0-1.823.781-1.823 1.744 0 .964.818 1.744 1.825 1.744 1.006 0 1.821-.78 1.821-1.744zm.008-3.391h2.011v6.782h-2.011v-.434c-.587.405-1.283.621-1.995.62-1.958 0-3.546-1.6-3.546-3.577 0-1.975 1.588-3.577 3.546-3.577.74 0 1.426.229 1.995.62v-.434zm-16.101.001h-2.06v6.78h2.065v-3.166c0-1.068 1.146-1.641 1.942-1.641h.024v-1.973c-.817 0-1.567.353-1.971.883v-.883zm-5.132 3.39c0-.964-.816-1.744-1.823-1.744-1.007 0-1.823.781-1.823 1.744 0 .964.818 1.744 1.824 1.744 1.007 0 1.822-.78 1.822-1.744zm.007-3.391h2.013v6.782h-2.013v-.434c-.568.391-1.254.62-1.994.62-1.959 0-3.546-1.6-3.546-3.577 0-1.975 1.587-3.577 3.546-3.577.74 0 1.426.229 1.994.62v-.434zm12.11-.181c-.803 0-1.563.25-2.073.945v-.763h-2.003v6.78h2.028v-3.562c0-1.031.685-1.537 1.51-1.537.884 0 1.394.533 1.394 1.522v3.578h2.009v-4.312c0-1.578-1.244-2.651-2.865-2.651zm-20.58 6.963h2.106v-9.803h-2.106v9.803zm-9.252.002h2.23V1070h-2.229l-.001 9.807zm7.802-9.807c0 2.123-.82 4.099-2.282 5.566l3.082 4.241h-2.754L18.5 1075.2l.865-.654c1.428-1.073 2.263-2.759 2.253-4.545h2.185z" transform="translate(-16 -1070)"/>
        </g>
    </g>
</svg>
