<svg xmlns="http://www.w3.org/2000/svg" width="24" height="16" viewBox="0 0 24 16">
    <g fill="none" fill-rule="evenodd">
        <rect width="23" height="15" x=".5" y=".5" fill="#FFF" stroke="#D0D0D0" rx="2"/>
        <g fill-rule="nonzero">
            <path fill="#FF5F00" d="M9.863 4.914h4.201v7.158H9.863z"/>
            <path fill="#EB001B" d="M10.296 8.494c-.001-1.397.613-2.716 1.666-3.578-1.789-1.467-4.358-1.254-5.902.49-1.543 1.744-1.543 4.433 0 6.176 1.544 1.744 4.113 1.958 5.902.491-1.053-.862-1.668-2.182-1.666-3.58z"/>
            <path fill="#F79E1B" d="M18.69 11.477v-.281h.12v-.059h-.288v.059h.114v.28h.054zm.56 0v-.34h-.088l-.101.243-.102-.243h-.087v.34h.063v-.257l.094.22h.066l.094-.22v.257h.06zM19.023 8.494c0 1.742-.954 3.332-2.457 4.094a4.217 4.217 0 0 1-4.604-.516c1.053-.863 1.668-2.182 1.668-3.579 0-1.397-.615-2.716-1.668-3.579a4.217 4.217 0 0 1 4.604-.516c1.503.762 2.457 2.352 2.457 4.094v.002z"/>
        </g>
    </g>
</svg>
