<svg width="24" height="24" viewBox="0 0 24 24" fill="none" xmlns="http://www.w3.org/2000/svg">
<path fill-rule="evenodd" clip-rule="evenodd" d="M5.25 8.25H18.75V18.75H5.25V8.25Z" stroke="#5F5F5F"/>
<path d="M19.875 5.25H4.125C3.91789 5.25 3.75 5.41789 3.75 5.625V7.875C3.75 8.08211 3.91789 8.25 4.125 8.25H19.875C20.0821 8.25 20.25 8.08211 20.25 7.875V5.625C20.25 5.41789 20.0821 5.25 19.875 5.25Z" stroke="#5F5F5F"/>
<path fill-rule="evenodd" clip-rule="evenodd" d="M14.3355 13.452C15.1522 13.092 15.687 12.5497 15.7162 11.952C15.7162 11.952 15.501 11.7848 14.8035 11.5283C14.1945 11.3025 13.7265 11.25 13.7265 11.25L13.7302 12.5865C13.7302 12.7875 13.6485 12.9915 13.5 13.1693C13.0048 13.0522 12.4976 12.9938 11.9887 12.9952C11.4799 12.9936 10.9726 13.052 10.4775 13.1693C10.3346 13.0081 10.2531 12.8018 10.2472 12.5865L10.251 11.25C10.251 11.25 9.78375 11.3025 9.171 11.5283C8.466 11.7848 8.25 11.952 8.25 11.952C8.28 12.5497 8.814 13.092 9.6315 13.452C8.814 13.812 8.28 14.3505 8.25 14.952C8.25 14.952 8.46525 15.1185 9.1635 15.375C9.77625 15.6015 10.2435 15.6533 10.2435 15.6533L10.2397 14.3168C10.2397 14.1165 10.3222 13.9118 10.47 13.734C10.9652 13.8513 11.4724 13.91 11.9813 13.9088C12.4901 13.9102 12.9974 13.8515 13.4925 13.734C13.6447 13.9155 13.7227 14.1202 13.7227 14.3168L13.719 15.6533C13.719 15.6533 14.187 15.6015 14.799 15.375C15.4972 15.1185 15.7125 14.952 15.7125 14.952C15.69 14.3505 15.156 13.8083 14.3355 13.452ZM11.985 13.752H11.97C11.484 13.752 11.0902 13.6335 10.8007 13.452C11.0902 13.2698 11.4833 13.1513 11.9708 13.1513H12C12.4867 13.1513 12.8797 13.2698 13.17 13.4513C12.8797 13.6335 12.4867 13.7528 12 13.7528H11.985V13.752Z" fill="#5F5F5F"/>
<path d="M22.125 12H19.125C18.9179 12 18.75 12.1679 18.75 12.375V18.375C18.75 18.5821 18.9179 18.75 19.125 18.75H22.125C22.3321 18.75 22.5 18.5821 22.5 18.375V12.375C22.5 12.1679 22.3321 12 22.125 12Z" stroke="#5F5F5F"/>
<path d="M4.875 12H1.875C1.66789 12 1.5 12.1679 1.5 12.375V18.375C1.5 18.5821 1.66789 18.75 1.875 18.75H4.875C5.08211 18.75 5.25 18.5821 5.25 18.375V12.375C5.25 12.1679 5.08211 12 4.875 12Z" stroke="#5F5F5F"/>
</svg>
