<svg xmlns="http://www.w3.org/2000/svg" width="40" height="40" viewBox="0 0 40 26"><g fill="none" fill-rule="evenodd"><rect width="7" height="14" x=".5" y="11.5" stroke="#1D1D1D" rx=".5"/><rect width="7" height="14" x="32.5" y="11.5" stroke="#1D1D1D" rx=".5"/><path stroke="#1D1D1D" d="M7.5 6.5h25v19h-25z"/><rect width="31" height="6" x="4.5" y=".5" stroke="#000" rx=".5"/><path fill="#000" fill-rule="nonzero" d="M24.048 15.414c1.416-.64 2.343-1.604 2.394-2.666 0 0-.373-.298-1.583-.753-1.056-.403-1.866-.495-1.866-.495l.006 2.376c0 .357-.142.72-.399 1.037a10.98 10.98 0 0 0-2.62-.31c-.932 0-1.82.112-2.619.31-.263-.324-.399-.687-.399-1.037l.007-2.376s-.811.092-1.873.495c-1.223.455-1.596.753-1.596.753.051 1.062.978 2.026 2.394 2.666-1.416.64-2.343 1.598-2.394 2.667 0 0 .373.297 1.583.752 1.062.403 1.873.495 1.873.495l-.006-2.376c0-.356.141-.72.399-1.036.804.198 1.686.31 2.619.31.933 0 1.821-.112 2.62-.31.263.323.398.686.398 1.036l-.006 2.376s.81-.092 1.872-.495c1.21-.455 1.584-.752 1.584-.752-.039-1.07-.966-2.033-2.388-2.667zm-4.074.535h-.025c-.844 0-1.526-.211-2.028-.535.502-.323 1.184-.534 2.028-.534H20c.843 0 1.525.21 2.027.534-.502.324-1.184.535-2.027.535h-.026z"/></g></svg>