<svg width="32" height="32" xmlns="http://www.w3.org/2000/svg">
    <g fill="none" fill-rule="evenodd">
        <g transform="translate(4 6)">
            <path stroke="#1D1D1D" stroke-width="2" d="M3 5h18v14H3z"/>
            <rect stroke="#1D1D1D" stroke-width="2" x="1" y="1" width="22" height="4" rx=".5"/>
            <path d="M15.114 11.936c1.089-.48 1.802-1.203 1.841-2 0 0-.287-.223-1.217-.565C14.926 9.07 14.302 9 14.302 9l.005 1.782c0 .268-.109.54-.307.777a8.652 8.652 0 0 0-2.015-.232 8.62 8.62 0 0 0-2.015.232 1.221 1.221 0 0 1-.307-.777L9.668 9s-.623.07-1.44.371C7.288 9.713 7 9.936 7 9.936c.04.797.752 1.52 1.842 2-1.09.48-1.802 1.198-1.842 2 0 0 .287.222 1.218.564.817.302 1.44.371 1.44.371l-.005-1.782c0-.267.11-.54.307-.777a8.652 8.652 0 0 0 2.015.233 8.62 8.62 0 0 0 2.015-.233c.203.242.307.515.307.777l-.005 1.782s.624-.069 1.44-.371c.931-.342 1.218-.564 1.218-.564-.03-.802-.742-1.525-1.836-2zm-3.134.4h-.02c-.648 0-1.173-.158-1.559-.4.386-.243.91-.401 1.56-.401H12c.649 0 1.173.158 1.56.4-.387.243-.911.402-1.56.402h-.02z" fill="#1D1D1D"/>
        </g>
        <rect stroke="#1D1D1D" stroke-width="2" x="25" y="16" width="5" height="9" rx=".5"/>
        <rect stroke="#1D1D1D" stroke-width="2" x="2" y="16" width="5" height="9" rx=".5"/>
    </g>
</svg>
