<svg width="33" height="32" xmlns="http://www.w3.org/2000/svg">
    <g fill="none" fill-rule="evenodd">
        <g stroke="#008850" stroke-linecap="round" stroke-width="1.2">
            <path d="M9.6 20.4H.8M9.6 16.4H3.2M9.6 12.4H6.4"/>
        </g>
        <g fill-rule="nonzero">
            <path stroke="#008850" stroke-width="1.2" fill="#000" stroke-linecap="round" stroke-linejoin="round" d="M12.8 21.2h2.4"/>
            <path stroke="#008850" stroke-width="1.2" fill="#FFF" stroke-linecap="round" stroke-linejoin="round" d="M29.2 21.2h2v-4L28.4 16l-.72-3.2H23.2v-2.4H12.8v10.8"/>
            <path stroke="#008850" stroke-width="1.2" fill="#000" stroke-linecap="round" stroke-linejoin="round" d="M19.6 21.2h5.2M23.2 12.8v8.4"/>
            <g transform="translate(25.24 19.52)">
                <circle stroke="#008850" stroke-width=".8" fill="#FFF" cx="1.84" cy="1.84" r="1.84"/>
                <circle fill="#008850" cx="1.84" cy="1.84" r="1"/>
            </g>
            <g transform="translate(15.56 19.52)">
                <circle stroke="#008850" stroke-width=".8" fill="#FFF" cx="1.84" cy="1.84" r="1.84"/>
                <circle fill="#008850" cx="1.84" cy="1.84" r="1"/>
            </g>
            <path d="m19.055 15.6-.087.066c-.22.165-.54.279-.955.279h-.027c-.415 0-.735-.114-.955-.279a6.405 6.405 0 0 1-.086-.066l.086-.066c.22-.165.54-.279.955-.279h.027c.416 0 .735.114.955.279l.087.066m2.145-1.364s-.189-.153-.787-.386c-.524-.204-.92-.25-.92-.25l.001 1.2a.832.832 0 0 1-.165.5c-.446-.172-.867-.278-1.328-.278-.46 0-.882.106-1.328.278a.829.829 0 0 1-.165-.5l.002-1.2s-.399.045-.924.25c-.597.234-.786.386-.786.386.025.545.474 1.03 1.183 1.364-.71.334-1.159.817-1.183 1.364 0 0 .189.153.786.386.525.204.921.25.921.25l-.002-1.201c0-.17.044-.324.165-.5.446.173.868.279 1.328.279.461 0 .883-.106 1.329-.278.121.175.165.33.165.499L19.49 17.6s.396-.046.92-.25c.598-.234.787-.386.787-.386-.025-.546-.474-1.03-1.182-1.364.708-.334 1.158-.817 1.182-1.364" fill="#008850"/>
        </g>
    </g>
</svg>
