<svg xmlns="http://www.w3.org/2000/svg" width="24" height="16" viewBox="0 0 24 16">
    <g fill="none" fill-rule="evenodd">
        <rect width="23" height="15" x=".5" y=".5" fill="#FFF" stroke="#D0D0D0" rx="2"/>
        <path fill="#182E66" d="M11.922 6.088l-1.069 4.836H9.56l1.07-4.836h1.292zm5.44 3.123l.68-1.816.392 1.816h-1.072zm1.442 1.713H20l-1.043-4.836h-1.104a.59.59 0 0 0-.55.355l-1.94 4.481h1.357l.27-.722h1.658l.156.722zM15.43 9.345C15.436 8.07 13.606 8 13.62 7.43c.003-.174.174-.358.548-.406a2.513 2.513 0 0 1 1.275.217l.227-1.026A3.574 3.574 0 0 0 14.459 6c-1.278 0-2.177.657-2.185 1.599-.008.696.642 1.084 1.132 1.316.504.237.673.389.671.6-.003.325-.402.468-.774.474-.65.01-1.027-.17-1.328-.306l-.234 1.06c.302.134.86.251 1.438.257 1.358 0 2.247-.65 2.251-1.655zm-5.355-3.257L7.98 10.924H6.613l-1.03-3.859c-.063-.238-.117-.325-.308-.425-.31-.163-.823-.316-1.275-.411l.03-.14h2.2c.281 0 .533.18.597.492L7.37 9.38l1.346-3.292h1.358z"/>
    </g>
</svg>
