<svg xmlns="http://www.w3.org/2000/svg" xmlns:xlink="http://www.w3.org/1999/xlink" width="32" height="32" viewBox="0 0 32 32">
    <defs>
        <rect id="a" width="32" height="32" rx="5"/>
        <linearGradient id="c" x1="0%" y1="100%" y2="0%">
            <stop offset="0%" stop-color="#005896"/>
            <stop offset="38.995%" stop-color="#0070BF"/>
            <stop offset="100%" stop-color="#0096FF"/>
        </linearGradient>
    </defs>
    <g fill="none" fill-rule="evenodd">
        <rect width="32" height="32" fill="#D8D8D8" fill-rule="nonzero" rx="5.76"/>
        <g>
            <mask id="b" fill="#fff">
                <use xlink:href="#a"/>
            </mask>
            <g fill-rule="nonzero" mask="url(#b)">
                <path fill="url(#c)" d="M0 0h32v32H0z"/>
                <path fill="#FFF" d="M14.979 17.371l-2.358-3.443-.588-.482s.01-.37.178-.41c.186-.045.531.26.475.164l.183.54 1.055 1.315 1.18 1.44.371.438s.187.313.435.25c.248-.062.31-.438.31-.438s-.278-.42-.248-.563c.03-.143.4-.2.558-.313.16-.113.413-.282.642-.257a.884.884 0 0 1 .51.221c.237.19.151.474.151.662 0 .188-.372.5-.372.5l-.434.25-.124.314.496-.313.497-.188s.93 0 1.178-.062c.249-.063 1.304-.564 1.304-.564s.993-.25 1.117-.25.385-.123.558 0c.174.123.128.17.062.313-.066.144-.125.206-.248.188-.123-.018-.31-.125-.31-.125l-.745.375-.559.125-.496.25-.806.314-1.118.313s-.496.563-.558.876c-.062.313-.372 1.002-.372 1.002l.186.438s.434.438.496.814c.062.375.248.25.496.375.249.126.621.376.621.376l.62.5.621.439.62.25s.745.188.994.313c.248.125 1.054.564 1.054.564l.559.376.682.187h.621l.248.376s0 .25-.31.187c-.31-.062-.744-.062-.744-.062l-.373-.062s-.496-.376-.744-.439a80.73 80.73 0 0 1-1.49-.438l-1.675-.564s-1.614-.688-1.986-.688c-.372 0-.993-.063-1.179-.063-.186 0-1.117.626-1.117.626s-.993.501-1.24.564c-.249.063-1.118.75-1.428.876-.31.126-1.117.313-1.303.376-.186.062-1.365.187-1.365.187l-.435.251s-.266.448-.372.5c-.107.053-.426-.014-.478-.058-.051-.045-.002-.094-.189-.094-.186 0-.561.087-.636.09-.075.004-.391-.066-.407-.192-.015-.127.635-.303.635-.303l.59-.313s.266-.134.436-.171c.181-.04.545-.147.545-.147l1.303-.502.87-.375s.62-.564.868-.689 1.055-.626 1.055-.626.737-.479.869-.563c.13-.085.434-.063.434-.313s.124-.94.124-.94l.09-.952s-.152-.612-.152-.8c0-.188-.182-.502 0-.75.182-.25.062-.564.062-.564v-.439zM19.813 6.555s-.225-.17-.934-.431c-.623-.23-1.092-.28-1.092-.28l.002 1.343a.894.894 0 0 1-.197.558c-.529-.193-1.029-.311-1.576-.311h-.001c-.547 0-1.047.118-1.576.311a.894.894 0 0 1-.196-.558l.002-1.343s-.47.05-1.093.28c-.71.26-.933.431-.933.431.03.61.563 1.152 1.404 1.525-.841.374-1.375.916-1.404 1.525 0 0 .224.171.933.432.623.229 1.093.28 1.093.28l-.002-1.343c0-.19.051-.362.196-.559.529.193 1.03.312 1.576.312h.001c.547 0 1.047-.119 1.576-.312.145.197.197.37.197.559l-.002 1.343s.47-.051 1.092-.28c.71-.26.933-.432.933-.432-.029-.61-.563-1.151-1.404-1.525.841-.373 1.375-.915 1.404-1.525M17.268 8.08a5.878 5.878 0 0 1-.103.074c-.261.185-.64.312-1.133.312h-.033c-.492 0-.872-.127-1.133-.312a5.826 5.826 0 0 1-.102-.074l.102-.074c.261-.185.64-.311 1.133-.311h.033c.493 0 .872.126 1.133.311.04.03.074.053.103.074"/>
            </g>
        </g>
    </g>
</svg>
