<svg xmlns="http://www.w3.org/2000/svg" width="32" height="32" viewBox="0 0 32 32">
    <defs>
        <radialGradient id="a" cx="100%" cy="0%" r="141.421%" fx="100%" fy="0%">
            <stop offset="0%" stop-color="#5A5A5A"/>
            <stop offset="51.635%" stop-color="#1A1A1A"/>
            <stop offset="100%"/>
        </radialGradient>
    </defs>
    <g fill="none" fill-rule="evenodd">
        <path fill="url(#a)" d="M6.41 0h19.18c2.23 0 3.037.232 3.852.668a4.543 4.543 0 0 1 1.89 1.89c.436.815.668 1.623.668 3.852v19.18c0 2.23-.232 3.037-.668 3.852a4.543 4.543 0 0 1-1.89 1.89c-.815.436-1.623.668-3.852.668H6.41c-2.23 0-3.037-.232-3.852-.668a4.543 4.543 0 0 1-1.89-1.89C.232 28.627 0 27.82 0 25.59V6.41c0-2.23.232-3.037.668-3.852a4.543 4.543 0 0 1 1.89-1.89C3.373.232 4.18 0 6.41 0z"/>
        <path fill="#FFF" fill-rule="nonzero" d="M19.296 16l-.271.198c-.688.496-1.686.836-2.984.836h-.086c-1.297 0-2.296-.34-2.983-.836a19.953 19.953 0 0 1-.27-.198c.075-.057.163-.122.27-.199.687-.495 1.686-.836 2.983-.836h.086c1.298 0 2.297.34 2.984.836.107.077.196.142.27.199M26 11.909s-.59-.46-2.458-1.159c-1.64-.613-2.877-.75-2.877-.75l.005 3.602c0 .507-.136.97-.516 1.499-1.393-.518-2.71-.836-4.15-.836-1.44 0-2.757.318-4.15.836-.381-.526-.516-.992-.516-1.499L11.344 10s-1.246.136-2.887.75C6.591 11.451 6 11.91 6 11.91c.077 1.635 1.483 3.088 3.696 4.091-2.215 1.002-3.62 2.452-3.696 4.091 0 0 .59.459 2.457 1.159 1.64.613 2.878.75 2.878.75l-.006-3.603c0-.507.137-.97.516-1.498 1.393.517 2.71.835 4.15.835 1.44 0 2.757-.318 4.15-.835.381.526.516.99.516 1.498L20.656 22s1.237-.137 2.877-.75c1.868-.701 2.458-1.159 2.458-1.159-.077-1.636-1.482-3.09-3.696-4.091 2.215-1.003 3.62-2.452 3.696-4.091"/>
    </g>
</svg>
