<?xml version="1.0" encoding="utf-8"?>
<!-- Generator: Adobe Illustrator 19.1.0, SVG Export Plug-In . SVG Version: 6.00 Build 0)  -->
<svg version="1.1" id="Layer_1" xmlns="http://www.w3.org/2000/svg" xmlns:xlink="http://www.w3.org/1999/xlink" x="0px" y="0px"
	 viewBox="0 0 558.3 65" style="enable-background:new 0 0 558.3 65;" xml:space="preserve">
<polygon id="XMLID_30_" points="285.1,42.3 285.1,46.7 271.5,46.7 271.5,49.9 284.1,49.9 284.1,54.3 271.5,54.3 271.5,57.4 
	285.4,57.4 285.4,61.9 264.5,61.9 264.5,42.3 "/>
<polygon id="XMLID_29_" points="336.9,42.3 336.9,46.7 330,46.7 330,61.9 323,61.9 323,46.7 316,46.7 316,42.3 "/>
<polygon id="XMLID_28_" points="360.9,42.3 360.9,46.7 347.3,46.7 347.3,49.9 359.9,49.9 359.9,54.3 347.3,54.3 347.3,57.4 
	361.2,57.4 361.2,61.9 340.3,61.9 340.3,42.3 "/>
<polygon id="XMLID_27_" points="394.4,61.8 397.7,61.8 397.7,53.2 411.8,53.2 411.8,50.3 394.4,50.3 "/>
<rect id="XMLID_26_" x="394.4" y="42.4" width="18" height="3"/>
<rect id="XMLID_25_" x="417" y="42.4" width="3.5" height="19.4"/>
<polygon id="XMLID_24_" points="425.1,42.4 425.1,45.3 433.1,45.3 433.1,61.8 436.5,61.8 436.5,45.3 444.5,45.3 444.5,42.4 "/>
<polygon id="XMLID_23_" points="478.8,58.8 478.8,53.2 493.7,53.2 493.7,50.3 478.8,50.3 478.8,45.4 494.1,45.4 494.1,42.4 
	475.4,42.4 475.4,61.8 494.8,61.8 494.8,58.8 "/>
<path id="XMLID_22_" d="M29.9,22.4L29.9,22.4l-0.1,0c-3.9,0-7-1-9.4-2.4c2.3-1.5,5.5-2.4,9.4-2.4l0.1,0l0.1,0c3.9,0,7.1,1,9.4,2.4
	c-2.3,1.5-5.5,2.4-9.4,2.4L29.9,22.4z M48.8,20c6.6-2.9,10.8-7.2,11.1-12c0,0-1.7-1.3-7.3-3.4c-4.9-1.8-8.6-2.2-8.6-2.2l0,10.7
	c0,1.6-0.6,3.2-1.9,4.7c-3.7-0.9-7.8-1.4-12.1-1.4c-4.3,0-8.4,0.5-12.1,1.4c-1.2-1.4-1.9-3.1-1.9-4.7l0-10.7c0,0-3.7,0.4-8.7,2.2
	C1.7,6.6,0,7.9,0,7.9c0.2,4.8,4.5,9.1,11.1,12C4.5,22.8,0.2,27.2,0,32c0,0,1.7,1.3,7.3,3.4c4.9,1.8,8.7,2.2,8.7,2.2l0-10.7
	c0-1.6,0.6-3.2,1.9-4.7c3.7,0.9,7.8,1.4,12.1,1.4c4.3,0,8.4-0.5,12.1-1.4c1.2,1.4,1.9,3.1,1.9,4.7l0,10.7c0,0,3.7-0.4,8.6-2.2
	c5.6-2.1,7.3-3.4,7.3-3.4C59.6,27.2,55.3,22.8,48.8,20"/>
<path id="XMLID_21_" d="M81.2,34.5c-11,0-11.2-8.4-11.2-11.6V7.6c0-0.9-0.1-2.2,1.9-2.2h5.7c1.9,0,1.7,1.3,1.7,2.2v15.3
	c0,1.1,0.2,4,4.2,4H93c3.9,0,4.2-2.9,4.2-4V7.6c0-0.8-0.1-2.2,1.7-2.2h5.7c2.1,0,1.9,1.3,1.9,2.2v15.3c0,3.2-0.2,11.6-11.2,11.6
	H81.2z"/>
<path id="XMLID_20_" d="M133.9,32.7c-3.9-5.2-9.4-11.8-15.1-18.8v18.6c0,0.8,0.2,2-1.7,2h-5.3c-1.9,0-1.7-1.2-1.7-2V7.6
	c0-0.8-0.1-2.2,1.7-2.2h10.4c2.9,0,7.1,5.9,9.8,9.8c2.1,3,6,7.4,8.6,10.8V7.6c0-0.8-0.1-2.2,1.8-2.2h5.8c1.8,0,1.7,1.3,1.7,2.2v26.9
	h-10.6C137,34.5,136,34.7,133.9,32.7"/>
<path id="XMLID_19_" d="M153.4,34.5v-29h25.7c1.6,0,12.1-0.2,12.1,10.9c0,11.3,1.2,18.2-11.9,18.2h-13.8l-3-6.1v6.1H153.4z
	 M177.7,26.9c4.7,0,4.3-4.5,4.3-6.5c0-6.9-1.9-7.1-5-7.1h-14.6v13.6H177.7z"/>
<path id="XMLID_18_" d="M201.2,5.7h23.7c2,0,1.7,1.3,1.7,3.7c0,2.3,0.3,3.5-1.7,3.5h-18.7c-0.5,0-2.2-0.3-2.2,1.5
	c0,1.8-0.3,2.5,1.5,2.5h16.5c0,0,2.4,4.6,2.7,5.3c0.4,0.7,0.3,1.4-1.1,1.4h-17.1l-2.7-5.2V26c0,1.8,1.6,1.4,2,1.4h19.4
	c1.9,0,1.8,1.3,1.8,3.5c0,2.4,0.2,3.7-1.8,3.7h-24.6c-2,0-6-0.6-6-7v-16C194.7,10,195.6,5.7,201.2,5.7"/>
<path id="XMLID_17_" d="M233,5.5h25.9c3.5,0,8.5,0,8.5,9.3c0,6.1-1.3,6.4-4.1,8.3c4.7,0.8,4.1,6.8,4.1,9.9c0,1.6-0.6,1.5-1,1.5h-7.6
	c-1.6,0-1.2-2.5-1.2-3.8c0-3.6-2-3.4-2.8-3.4h-11.2c-1.1-1.9-3.2-6-3.2-6v12.1c0,1-1,1.2-1.4,1.2h-7.6c0.4,0-0.8,0.1-0.8-1V8
	C230.6,6.2,231.9,5.5,233,5.5 M253.6,13.1h-11.5c-1.9,0-1.9,0.7-1.9,1.2v5.2h11.9c5.7,0,5.7-1.4,5.7-2.9
	C257.8,13.6,257.6,13.1,253.6,13.1"/>
<path id="XMLID_16_" d="M312,5.7c1.9,0,3.7,0.9,5.7,4.7c1.3,2.8,10.7,19.8,12.7,23.3v1h-9.8l-2.8-5.1h-11.9c0,0-2-4.6-2.6-5.9
	c-0.7,1.2-4.7,8.7-6,10.9h-9.8v-0.6c2-3.8,15.7-28.4,15.7-28.4H312z M308.9,13.7c-0.4,0.7-4.5,8.1-4.8,8.7c-0.2,0.3,0,0.4,0.4,0.4
	h8.9c0.5,0,0.6-0.1,0.5-0.4c-0.3-0.7-4.2-8-4.5-8.7C309.2,13.5,309,13.5,308.9,13.7"/>
<path id="XMLID_15_" d="M335.5,5.5h25.9c3.5,0,8.5,0,8.5,9.3c0,6.1-1.3,6.4-4.1,8.3c4.7,0.8,4.1,6.8,4.1,9.9c0,1.6-0.6,1.5-1,1.5
	h-7.6c-1.6,0-1.2-2.5-1.2-3.8c0-3.6-2-3.4-2.8-3.4h-11.2c-1.1-1.9-3.1-6-3.1-6v12.1c0,1-1,1.2-1.4,1.2h-7.6c0.4,0-0.8,0.1-0.8-1V8
	C333.1,6.2,334.4,5.5,335.5,5.5 M356.1,13.1h-11.5c-1.9,0-1.8,0.7-1.8,1.2v5.2h11.9c5.7,0,5.7-1.4,5.7-2.9
	C360.3,13.6,360.1,13.1,356.1,13.1"/>
<path id="XMLID_14_" d="M392.5,34.5c-1.9-3.6-7.3-13.6-10.9-20.1v18.1c0,0.8,0.1,2-1.7,2h-5.2c-2,0-1.8-1.2-1.8-2V7.6
	c0-0.8-0.1-2.1,1.8-2.1h9.1c1.3,0,3.3-0.3,5.4,4c1.6,3.5,5,10.6,7.4,14.4c2.4-3.8,5.9-11,7.5-14.4c2.1-4.3,4-4,5.5-4h9
	c1.9,0,1.7,1.3,1.7,2.1v24.9c0,0.8,0.3,2-1.7,2h-5.3c-1.9,0-1.8-1.2-1.8-2V14.4c-3.7,6.5-9,16.5-11,20.1H392.5z"/>
<path id="XMLID_13_" d="M431.8,34.6c-8.6,0-8.2-9.2-8.2-15.2c0-5.5-0.6-14,10.1-14.1h19.1c10.8,0,10.1,8.7,10.1,14.1
	c0,6,0.4,15.2-8.3,15.2H431.8z M449.1,27.1c4.4,0,4.2-4.5,4.2-7.5c0-2.7,0.6-6.9-5-6.9h-9.6c-5.6,0-5,4.2-5,6.9c0,3-0.3,7.5,4.1,7.5
	H449.1z"/>
<path id="XMLID_12_" d="M477.3,34.5c-11,0-11.2-8.4-11.2-11.6V7.6c0-0.9-0.1-2.2,1.9-2.2h5.7c1.9,0,1.7,1.3,1.7,2.2v15.3
	c0,1.1,0.2,4,4.2,4h9.5c3.9,0,4.2-2.9,4.2-4V7.6c0-0.8-0.1-2.2,1.7-2.2h5.7c2.1,0,1.9,1.3,1.9,2.2v15.3c0,3.2-0.2,11.6-11.2,11.6
	H477.3z"/>
<path id="XMLID_11_" d="M508.8,5.5h25.9c3.5,0,8.5,0,8.5,9.3c0,6.1-1.3,6.4-4.1,8.3c4.7,0.8,4,6.8,4,9.9c0,1.6-0.6,1.5-1,1.5h-7.6
	c-1.6,0-1.2-2.5-1.2-3.8c0-3.6-2-3.4-2.8-3.4h-11.2c-1.1-1.9-3.2-6-3.2-6v12.1c0,1-1,1.2-1.4,1.2h-7.6c0.4,0-0.8,0.1-0.8-1V8
	C506.4,6.2,507.7,5.5,508.8,5.5 M529.4,13.1h-11.5c-1.9,0-1.9,0.7-1.9,1.2v5.2h11.9c5.7,0,5.7-1.4,5.7-2.9
	C533.7,13.6,533.4,13.1,529.4,13.1"/>
<path id="XMLID_10_" d="M160,52.1c0,3,1.7,6,5.8,6c1.5,0,2.9-0.5,4-1.3c0.9-0.7,1.2-1.4,1.4-2l6.7,0.7c-0.2,0.7-0.5,1.4-1.1,2.4
	c-2.3,3.5-6.8,4.5-11.1,4.5c-1.9,0-3.8-0.2-5.6-0.7c-4-1.2-7.3-4.3-7.3-9.7c0-3.8,2-10.6,13.1-10.6c9.5,0,11,4.3,11.6,6.2l-6.5,1.2
	c-0.3-0.6-0.6-1.3-1.6-2c-1.1-0.7-2.4-0.9-3.3-0.9C162.8,46,160,47.9,160,52.1"/>
<path id="XMLID_9_" d="M188.2,52.1c0,3,1.6,6.1,5.9,6.1c1,0,2-0.1,2.8-0.6c2.2-1.1,2.9-3.6,2.9-5.6c0-2.1-0.9-6.1-5.7-6.1
	C189.7,45.9,188.2,49.4,188.2,52.1 M201,42.7c4.5,1.8,6.1,5.9,6.1,9.3c0,1.8-0.4,3.7-1.4,5.3c-0.6,1-1.4,1.9-2.3,2.6
	c-2.7,2.1-5.8,2.6-9.4,2.6c-6.8,0-9.6-2.4-11-4.4c-1.3-1.8-1.9-3.7-1.9-5.9c0-2.2,0.6-4.3,1.8-6.1c2.7-3.9,7.4-4.5,10.9-4.6
	C196.1,41.6,198.7,41.8,201,42.7"/>
<path id="XMLID_8_" d="M210.7,42.3h5.8l6,6.6c1.7,1.9,2.1,2.3,3.5,4.1c-0.1-2.7-0.1-3.6-0.1-6.3v-4.4h6.9v19.5h-5.8l-7.2-8.1
	c-1-1.2-1.3-1.6-2.2-2.7c0.1,3.4,0.1,4.1,0.1,6.6v4.1h-6.9V42.3z"/>
<path id="XMLID_7_" d="M237.7,42.3h5.8l6,6.6c1.7,1.9,2.1,2.3,3.5,4.1c-0.1-2.7-0.1-3.6-0.1-6.3v-4.4h6.9v19.5h-5.8l-7.2-8.1
	c-1-1.2-1.3-1.6-2.2-2.7c0.1,3.4,0.1,4.1,0.1,6.6v4.1h-6.9V42.3z"/>
<path id="XMLID_6_" d="M296.2,52.4c0,3,1.7,6,5.8,6c1.5,0,2.9-0.5,4-1.3c0.9-0.7,1.2-1.4,1.4-2l6.7,0.7c-0.2,0.7-0.5,1.4-1.1,2.4
	c-2.3,3.5-6.8,4.5-11.1,4.5c-1.9,0-3.8-0.2-5.6-0.7c-4-1.2-7.3-4.3-7.3-9.7c0-3.8,2-10.6,13.1-10.6c9.5,0,11,4.3,11.6,6.2l-6.5,1.2
	c-0.3-0.6-0.6-1.3-1.6-2c-1.1-0.7-2.4-0.9-3.3-0.9C299.1,46.3,296.2,48.3,296.2,52.4"/>
<path id="XMLID_5_" d="M372.5,57.4h3.1c2.4,0,3.7-0.4,4.5-1.2c0.9-0.8,1.6-2.5,1.6-4.1c0-1.9-0.7-3.3-1.7-4.1
	c-1.2-1-2.9-1.1-4.2-1.1h-3.3V57.4z M365.7,42.3h11.1c2,0,7.7-0.1,10.4,4.6c0.4,0.7,1.4,2.4,1.4,5.3c0,1.5-0.3,3.1-0.9,4.5
	c-0.5,1.1-1.4,2.7-3.7,3.9c-2.1,1.1-4,1.2-5.9,1.2h-12.4V42.3z"/>
<path id="XMLID_4_" d="M467.1,42.4v13.1l0,0.2c0,0.8,0,1.1,0.1,1.7c-0.5-0.6-14.6-14.9-14.6-14.9l-0.1-0.1h-3.3v19.4h3.3V49.1
	c0-1.2,0-1.7-0.1-2.4c0.2,0.3,14.8,15.1,14.8,15.1h3.2V42.4H467.1z"/>
<path id="XMLID_3_" d="M514.4,50.7c-0.9-0.2-1.8-0.3-2.5-0.4c-0.9-0.1-1.7-0.2-2.6-0.2c-0.8-0.1-1.7-0.1-2.5-0.2
	c-1.8-0.2-2.6-0.3-3.2-1c-0.3-0.3-0.5-0.8-0.5-1.2c0-0.5,0.2-1.5,1.5-2.1c1.1-0.5,3-0.7,4.4-0.7c2.4,0,4.2,0.5,5.6,1.5
	c0.4,0.3,0.6,0.5,0.9,0.8l0.3,0.3l3-1.2l-0.2-0.3c-0.6-0.8-1-1.3-2-2c-2-1.3-4.5-1.9-7.7-1.9c-5.8,0-9.1,2.1-9.1,5.8
	c0,1.4,0.5,2.5,1.4,3.4c1.5,1.4,3.1,1.5,7.9,1.9l0-0.3l0.1,0.3c4.1,0.3,6.4,0.7,6.4,2.9c0,2.2-2.3,3.5-6.1,3.5
	c-2.9,0-5.1-0.6-6.9-1.8c-0.7-0.5-1-0.8-1.2-1.1l-0.1-0.2l-3,1.2l0.2,0.3c0.5,0.8,2,2.8,5.9,3.8c1.3,0.3,3.3,0.6,4.9,0.6
	c4.2,0,7.1-1,8.5-3.1c0.7-1,1-2.1,1-3.3C519,52.3,516.1,51.1,514.4,50.7"/>
<path id="XMLID_2_" d="M538.7,50.7c-0.9-0.2-1.8-0.3-2.5-0.4c-0.9-0.1-1.7-0.2-2.6-0.2c-0.8-0.1-1.7-0.1-2.5-0.2
	c-1.8-0.2-2.6-0.3-3.2-1c-0.3-0.3-0.5-0.8-0.5-1.2c0-0.5,0.2-1.5,1.5-2.1c1.1-0.5,3-0.7,4.4-0.7c2.4,0,4.2,0.5,5.6,1.5
	c0.4,0.3,0.6,0.5,0.9,0.8l0.3,0.3l3-1.2l-0.2-0.3c-0.6-0.8-1-1.3-2-2c-2-1.3-4.5-1.9-7.7-1.9c-5.8,0-9.1,2.1-9.1,5.8
	c0,1.4,0.5,2.5,1.4,3.4c1.5,1.4,3.1,1.5,7.9,1.9l0-0.3l0.1,0.3c4.1,0.3,6.4,0.7,6.4,2.9c0,2.2-2.3,3.5-6.1,3.5
	c-2.9,0-5.1-0.6-6.9-1.8c-0.7-0.5-1-0.8-1.2-1.1l-0.1-0.2l-3,1.2l0.2,0.3c0.5,0.8,2,2.8,5.9,3.8c1.3,0.3,3.3,0.6,4.9,0.6
	c4.2,0,7.1-1,8.5-3.1c0.7-1,1-2.1,1-3.3C543.2,52.3,540.4,51.1,538.7,50.7"/>
<path id="XMLID_1_" d="M558.3,61.8h-1.3c0-2.5,0.1-3.4,0.2-4c-0.1,0.5-0.1,0.5-0.2,0.9l-0.9,3.1h-1.2l-1-3.1c0-0.1-0.2-0.7-0.2-0.8
	c0,0.3,0.2,1.5,0.2,3.9h-1.3v-5.4h1.7l1.2,3.9l1.1-3.9h1.7V61.8z M550.4,61.8H549v-4.3h-1.6v-1.1h4.6v1.1h-1.6V61.8z"/>
</svg>
