<?xml version="1.0" encoding="utf-8"?>
<!-- Generator: Adobe Illustrator 27.6.1, SVG Export Plug-In . SVG Version: 6.00 Build 0)  -->
<svg version="1.1" id="layer" xmlns="http://www.w3.org/2000/svg" xmlns:xlink="http://www.w3.org/1999/xlink" x="0px" y="0px"
	 viewBox="0 0 812.8 504.4" style="enable-background:new 0 0 812.8 504.4;" xml:space="preserve">
<style type="text/css">
	.st0{fill:#71706F;}
	.st1{fill:#B90466;}
</style>
<g>
	<path class="st0" d="M637.6,254.5L637.6,254.5h-64.8c-7.2,0-13-5.7-13-12.9c0-7.2,5.8-13.5,13-13.5h98.6v-48.6h-98.6
		c-34.4,0-62.4,28.1-62.4,62.4s28,62.4,62.4,62.4h63.9c7.2,0,13,5.7,13,12.9c0,7.2-5.8,12.5-13,12.5h-137
		c-11.6,22.2-22.9,41.2-45.9,50.7h183.8c33.8-0.5,61.5-29.1,61.5-63.1C699.1,283.2,671.4,255,637.6,254.5"/>
	<path class="st0" d="M389.3,179.5c-54.9,0-99.6,45-99.6,100.2v2.1v206.4h49.7V380.4h49.8c54.9,0,99.4-45.6,99.4-100.8
		C488.7,224.3,444.2,179.5,389.3,179.5 M389.3,329.6h-49.9v-50.1c0-28,22.3-50.8,49.9-50.8c27.6,0,50.1,22.8,50.1,50.8
		S416.9,329.6,389.3,329.6"/>
	<path class="st1" d="M132.4,380.4c-47,0-86.5-33.5-97.2-77.2c0,0-3.1-14.5-3.1-24s2.9-24.1,2.9-24.1c10.8-43.6,50.2-76.1,97.1-76.1
		c55.2,0,100.5,44.8,100.5,100v24.3H86c8.7,16.9,26.2,26.4,46.4,26.4h131.8l0.2-143.1c0-21.3-17.4-38.8-38.8-38.8H38.8
		C17.5,147.8,0,164.7,0,186.1v186.8c0,21.3,17.5,39.3,38.8,39.3h186.8c19.1,0,35.1-13.7,38.2-31.7L132.4,380.4L132.4,380.4z"/>
	<path class="st1" d="M132.2,226.4c-20.1,0-37.6,12.3-46.3,28.2h92.6C169.8,238.7,152.3,226.4,132.2,226.4"/>
	<path class="st1" d="M216.8,87c0-45.6-37.9-82.5-84.6-82.5c-45.9,0-83.3,35.8-84.5,80.3c0,0.2,0,0.4,0,0.6v24.7
		c0,3,2.4,5.9,5.5,5.9h31.1c3,0,5.7-2.9,5.7-5.9V87c0-22.8,18.9-41.3,42.3-41.3s42.3,18.5,42.3,41.3v23.1c0,3,2.4,5.9,5.5,5.9h31.1
		c3,0,5.7-2.9,5.7-5.9L216.8,87L216.8,87z"/>
	<path class="st0" d="M445.1,444.9l-4.5,25.5c-2.2,12.9-10.7,18.8-22.1,18.8c-9.7,0-17.2-6.3-15-18.8l4.5-25.5h6.9l-4.5,25.5
		c-1.4,8,2.2,12.5,8.9,12.5c6.9,0,12.9-4.1,14.3-12.5l4.5-25.5H445.1z M417.8,436.9c0,2.1,1.6,3.1,3.4,3.1c2.2,0,4.6-1.5,4.6-4.5
		c0-2.1-1.4-3.1-3.2-3.1C420.3,432.4,417.8,433.8,417.8,436.9 M432.8,436.8c0,2.2,1.7,3.2,3.5,3.2c1.9,0,4.5-1.5,4.5-4.4
		c0-2.1-1.5-3.2-3.2-3.2C435.4,432.4,432.8,433.8,432.8,436.8"/>
	<path class="st0" d="M461.8,444.9l-3.1,17.6c2.7-3.6,8.1-5.5,11.8-5.5c7.8,0,13.1,4.6,13.1,13c0,11.9-8.3,19.1-18.9,19.1
		c-4.1,0-7.6-1.5-9.8-5.4l-1.2,4.6h-6.1l7.7-43.4L461.8,444.9L461.8,444.9z M457,474.6c-0.3,5.1,3.1,8.4,7.9,8.4
		c6.1,0,11.9-4.7,12.3-11.8c0.3-5.2-3.1-8.3-7.8-8.3C463.4,462.9,457.3,467.8,457,474.6"/>
	<path class="st0" d="M496.3,475.5c-0.2,4.2,3.1,7.7,8.7,7.7c3.1,0,7.2-1.2,9.5-3.3l3.5,4c-3.8,3.5-9.4,5.3-14.2,5.3
		c-8.9,0-14.1-5.3-14.1-13.5c0-10.8,8.5-18.9,19.4-18.9c10,0,15.6,6,12.2,18.7L496.3,475.5L496.3,475.5z M516.1,470.2
		c0.5-5.3-2.6-7.5-7.8-7.5c-4.7,0-9,2.2-10.9,7.5H516.1z"/>
	<path class="st0" d="M538.5,457.5l-0.3,4.1c3-3.9,6.6-4.8,9.9-4.8c3,0,5.7,1.1,7.1,2.6l-3.9,5.6c-1.4-1.3-2.8-1.9-5.1-1.9
		c-4.4,0-8.8,2.7-9.8,8.4l-3,16.6H527l5.5-30.7L538.5,457.5L538.5,457.5z"/>
	<polygon class="st0" points="586.3,457.5 589.5,481.8 601.3,457.5 608.4,457.5 592.3,488.2 584.8,488.2 581.7,468 576.8,478 
		571.4,488.2 563.9,488.2 558.5,457.5 565.7,457.5 568.9,481.8 580.7,457.5 	"/>
	<path class="st0" d="M616.7,475.5c-0.2,4.2,3.1,7.7,8.7,7.7c3.1,0,7.2-1.2,9.5-3.3l3.5,4c-3.8,3.5-9.4,5.3-14.2,5.3
		c-8.9,0-14.1-5.3-14.1-13.5c0-10.8,8.5-18.9,19.4-18.9c10,0,15.6,6,12.2,18.7L616.7,475.5L616.7,475.5z M636.5,470.2
		c0.5-5.3-2.6-7.5-7.8-7.5c-4.7,0-9,2.2-10.9,7.5H636.5z"/>
	<path class="st0" d="M659.4,457.5l-5.4,30.7h-6.4l5.4-30.7H659.4z M653.7,449.2c0,2.2,1.6,3.3,3.4,3.3c2.5,0,4.8-1.6,4.8-4.7
		c0-2.1-1.5-3.3-3.2-3.3C656.3,444.6,653.7,446.1,653.7,449.2"/>
	<path class="st0" d="M687.9,465.1c-2-2.2-4.6-2.9-7.6-2.9c-4.2,0-7.3,1.4-7.3,4.1c0,2.3,2.4,3.2,6.1,3.5
		c5.6,0.5,12.8,2.4,11.3,10.3c-1.1,5.7-6.8,9.1-14.8,9.1c-5,0-9.8-1.1-13.1-5.7l4.2-4.6c2.3,3.2,6.4,4.5,10,4.6c3.1,0,6.7-1.1,7.3-4
		c0.6-2.8-1.9-3.8-6.4-4.2c-5.3-0.5-11-2.4-11-8.3c0-7.7,8.3-10.4,14.6-10.4c4.8,0,8.2,1.1,11.1,4.1L687.9,465.1z"/>
	<path class="st0" d="M708.3,457.5l-2.9,16.5c-1,5.3,1.4,8.9,6.8,8.9c5.1,0,9.4-4.2,10.2-9.3l2.8-16.1h6.4l-5.4,30.7h-5.8l0.4-4.4
		c-3.6,3.4-7.2,5.1-11.5,5.1c-7.6,0-12.1-5.4-10.4-14.7l2.9-16.6h6.5V457.5z"/>
	<path class="st0" d="M759.9,488.2l3-16.4c0.9-5.3-0.9-8.8-6.8-8.8c-5.1,0-9.4,4.1-10.3,9.2l-2.8,16.1h-6.4l5.4-30.7h5.9l-0.5,4.5
		c3.6-3.3,7.3-4.9,11.3-4.9c7.5,0,12.4,5.2,10.7,14.6l-3,16.5h-6.5V488.2z"/>
	<path class="st0" d="M781.7,492.4c-0.4,4.2,2.8,5.9,8.2,5.9c4.8,0,9.9-2.6,11.1-9.4l0.9-5.3c-2.8,3.9-7.9,5.5-11.8,5.5
		c-7.9,0-13.4-4.7-13.4-13.2c0-12.1,9-19.1,19.2-19.1c4.3,0,8.2,2.1,9.6,5.6l1.1-4.9h6.2l-5.4,31.6c-2,11.7-10.7,15.3-18.6,15.3
		c-9.5,0-14.7-4.6-13.4-12L781.7,492.4L781.7,492.4z M783.5,474.8c0,5.3,3.4,8.4,8.4,8.4c13.3,0,16.9-20.4,3.6-20.4
		C789.2,462.8,783.5,467.5,783.5,474.8"/>
</g>
</svg>
