<?xml version="1.0" encoding="utf-8"?>
<!-- Generator: Adobe Illustrator 27.6.1, SVG Export Plug-In . SVG Version: 6.00 Build 0)  -->
<svg version="1.1" id="Layer_1" xmlns="http://www.w3.org/2000/svg" xmlns:xlink="http://www.w3.org/1999/xlink" x="0px" y="0px"
	 viewBox="0 0 2437 793.1" style="enable-background:new 0 0 2437 793.1;" xml:space="preserve">
<style type="text/css">
	.st0{fill:#5A78FF;}
	.st1{opacity:0.7;fill:url(#SVGID_1_);enable-background:new    ;}
	.st2{opacity:0.7;fill:url(#SVGID_00000167361837683982811630000000765298816040786865_);enable-background:new    ;}
	.st3{opacity:0.4;}
	.st4{opacity:0.9;fill:url(#SVGID_00000093855537640081276300000004306667580390943419_);enable-background:new    ;}
	.st5{opacity:0.7;fill:url(#SVGID_00000116229699439387605990000012640951603150049173_);enable-background:new    ;}
</style>
<g>
	<path class="st0" d="M295.2,793.1c-26.8,0-51-16.1-61.3-40.9L5.1,199.8c-14-33.8,2-72.5,35.8-86.5L280.6,14
		c33.8-14,72.5,2,86.5,35.8c0,0,0,0,0,0l228.8,552.4c14,33.8-2.1,72.5-35.8,86.5L320.4,788C312.4,791.4,303.8,793.1,295.2,793.1
		L295.2,793.1z M305.9,44.6c-4,0-8,0.8-11.7,2.4L54.5,146.2c-15.6,6.5-23,24.3-16.5,39.9c0,0,0,0,0,0l228.8,552.4
		c6.5,15.6,24.3,23,39.9,16.6l239.7-99.3c15.6-6.5,23-24.3,16.5-39.9c0,0,0,0,0,0L334.1,63.5C329.4,52.1,318.3,44.6,305.9,44.6
		L305.9,44.6z"/>
	
		<linearGradient id="SVGID_1_" gradientUnits="userSpaceOnUse" x1="874.9659" y1="813.624" x2="875.0025" y2="814.3899" gradientTransform="matrix(32.9477 -13.6474 -90.5939 -218.713 45315.418 190150.5938)">
		<stop  offset="0" style="stop-color:#504678"/>
		<stop  offset="0.302" style="stop-color:#504678;stop-opacity:0.616"/>
		<stop  offset="0.608" style="stop-color:#504678;stop-opacity:0.283"/>
		<stop  offset="0.852" style="stop-color:#504678;stop-opacity:7.600000e-02"/>
		<stop  offset="1" style="stop-color:#504678;stop-opacity:0"/>
	</linearGradient>
	<path class="st1" d="M349.3,99.9l32.9-13.6L472.8,305l-32.9,13.6L349.3,99.9z"/>
	
		<linearGradient id="SVGID_00000095313572066105138590000009194991816507868312_" gradientUnits="userSpaceOnUse" x1="924.7491" y1="810.9545" x2="924.7858" y2="811.7203" gradientTransform="matrix(-32.9477 13.6474 102.5489 247.575 -52207.4844 -213008.5)">
		<stop  offset="0" style="stop-color:#504678"/>
		<stop  offset="0.302" style="stop-color:#504678;stop-opacity:0.616"/>
		<stop  offset="0.608" style="stop-color:#504678;stop-opacity:0.283"/>
		<stop  offset="0.852" style="stop-color:#504678;stop-opacity:7.600000e-02"/>
		<stop  offset="1" style="stop-color:#504678;stop-opacity:0"/>
	</linearGradient>
	<path style="opacity:0.7;fill:url(#SVGID_00000095313572066105138590000009194991816507868312_);enable-background:new    ;" d="
		M580.7,565.5l-32.9,13.6L445.2,331.6l32.9-13.6L580.7,565.5z"/>
	<path class="st0" d="M506.1,415c-68.5,28.4-125.8,67.6-163.2,114.8l-96.6-233.3c44.1-51.2,100.2-90.7,163.2-114.8
		c68.5-28.4,137.8-42.2,196.6-34.2l96.6,233.3C635.4,375.8,567.8,387.5,506.1,415z"/>
	<g class="st3">
		
			<linearGradient id="SVGID_00000114052827300775158150000001706647007909498514_" gradientUnits="userSpaceOnUse" x1="897.4287" y1="812.2266" x2="897.8655" y2="812.4774" gradientTransform="matrix(456.4822 0 0 -384.5635 -409351.5625 312752.875)">
			<stop  offset="0" style="stop-color:#504678"/>
			<stop  offset="0.179" style="stop-color:#504678;stop-opacity:0.872"/>
			<stop  offset="0.526" style="stop-color:#504678;stop-opacity:0.536"/>
			<stop  offset="1" style="stop-color:#504678;stop-opacity:0"/>
		</linearGradient>
		<path style="opacity:0.9;fill:url(#SVGID_00000114052827300775158150000001706647007909498514_);enable-background:new    ;" d="
			M506.1,415c-68.5,28.4-125.8,67.6-163.2,114.8l-96.6-233.3c44.1-51.2,100.2-90.7,163.2-114.8c68.5-28.4,137.8-42.2,196.6-34.2
			l96.6,233.3C635.4,375.8,567.8,387.5,506.1,415L506.1,415z"/>
		
			<linearGradient id="SVGID_00000080889931703418706390000015531981761289293188_" gradientUnits="userSpaceOnUse" x1="897.7693" y1="812.5397" x2="897.7447" y2="812.7057" gradientTransform="matrix(456.4822 0 0 -384.5635 -409351.5625 312752.875)">
			<stop  offset="0" style="stop-color:#504678"/>
			<stop  offset="0.643" style="stop-color:#504678;stop-opacity:0.332"/>
			<stop  offset="1" style="stop-color:#504678;stop-opacity:0"/>
		</linearGradient>
		<path style="opacity:0.7;fill:url(#SVGID_00000080889931703418706390000015531981761289293188_);enable-background:new    ;" d="
			M506.1,415c-68.5,28.4-125.8,67.6-163.2,114.8l-96.6-233.3c44.1-51.2,100.2-90.7,163.2-114.8c68.5-28.4,137.8-42.2,196.6-34.2
			l96.6,233.3C635.4,375.8,567.8,387.5,506.1,415L506.1,415z"/>
	</g>
	<path class="st0" d="M537.6,486.2c-74.2,0-142.1,14.3-194.7,43.6V293.8c60.3-30.4,127.2-45.4,194.7-43.6
		c74.2,0,143.4,13.8,194.7,43.7v235.9C672,499.4,605.1,484.4,537.6,486.2z M916.6,486.4l60-189.7c0.6-2.6,2.9-4.6,5.6-4.8h30.1
		c2.7,0.4,5,2.2,5.9,4.8l46.7,119.7c0.9,2.4,3.3,2.6,4.1,0l46.4-119.7c0.9-2.6,3.2-4.4,5.9-4.8h30.1c2.7,0.2,4.9,2.1,5.6,4.8
		l59.3,189.7c1.1,2.3,0.1,5-2.2,6.1c-0.7,0.3-1.5,0.5-2.3,0.4h-35.8c-2.5,0.1-4.8-1.6-5.3-4.1l-38.1-123.2c-0.6-2.4-3.3-2.4-4.1,0
		l-45.5,122.3c-0.8,2.9-3.4,5-6.5,5h-21c-3.3,0-5-1.8-6.3-5L1003,365.5c-0.9-2.4-3.3-2.4-3.9,0l-39,123.2c-0.6,2.5-3,4.3-5.6,4.1
		h-34.1c-2.4,0-4.4-2.1-4.4-4.5C916.1,487.7,916.3,487,916.6,486.4L916.6,486.4z M1227.8,418.2c-0.9-43.9,34-80.3,78-81.2
		c43.9-0.9,80.3,34,81.2,78c0.9,43.9-34,80.3-78,81.2c-0.5,0-1.1,0-1.6,0c-42.5,1.4-78.1-31.8-79.5-74.3
		C1227.7,420.6,1227.7,419.4,1227.8,418.2z M1346,418.2c-1.4-21.5-20.1-37.8-41.6-36.4c-21.5,1.4-37.8,20.1-36.4,41.6
		c1.4,20.7,18.7,36.7,39.4,36.5c22.1-0.9,39.3-19.6,38.4-41.7H1346z M1456.9,480.6c-3-2.4-5.6-1.5-5.6,2.6v3.9c0,3-2.4,5.4-5.3,5.6
		h-27.7c-3-0.1-5.5-2.5-5.6-5.6V297.3c0.1-3,2.5-5.5,5.6-5.6h29.2c3,0.1,5.3,2.6,5.3,5.6v54.1c0,3.9,2.6,5,6.8,2
		c11.2-8.4,24.8-12.9,38.8-13c40.5,0,71.5,34.1,71.5,78c1.9,41.1-29.9,76-71.1,77.9c-0.6,0-1.1,0-1.7,0.1
		C1482.3,496.3,1467.9,490.7,1456.9,480.6L1456.9,480.6z M1529.7,418.5c1.6-21.5-14.5-40.3-36-42c-21.5-1.6-40.3,14.5-42,36
		c-0.2,2-0.2,4,0,6c-0.8,21.8,16.2,40.2,38,41c0.2,0,0.5,0,0.7,0C1512.6,459.1,1530.2,440.7,1529.7,418.5c0-0.1,0-0.2,0-0.3V418.5z
		 M1594.4,305.6c0-12.6,10.2-22.7,22.7-22.7c12.6,0,22.7,10.2,22.7,22.7s-10.2,22.7-22.7,22.7
		C1604.6,328.4,1594.4,318.2,1594.4,305.6z M1596.4,487.5V350c0-3,2.4-5.4,5.3-5.6h29.2c3.2-0.1,5.9,2.4,6,5.6c0,0,0,0,0,0v137.1
		c-0.1,3-2.5,5.5-5.6,5.6h-29.7c-3-0.1-5.3-2.6-5.3-5.6V487.5z M1669.5,442.5V297.3c0-3,2.4-5.4,5.3-5.6h29.2c3,0.1,5.5,2.5,5.6,5.6
		v146.1c0,9.4,4.1,15.7,14.4,15.7c3.1,0,5.6,2.5,5.6,5.6c0,0,0,0,0,0v24.2c-0.1,3-2.6,5.3-5.6,5.3
		C1685.2,494.2,1669.5,481.5,1669.5,442.5L1669.5,442.5z M1740.6,419.1c0.2-42.4,34.7-76.7,77.1-76.6c42.4,0.2,76.7,34.7,76.6,77.1
		c0,5.3-1.5,9.8-6.8,9.8h-101.6c-2.6,0-3.5,1.5-3.3,3.9c2.5,17.8,18.4,30.6,36.4,29.2c10.8,0.2,21.1-4.5,28.1-12.7
		c2.2-3,5.7-4.8,9.4-4.8h27.2c4.8,0,6.8,3.3,5,8c-18.9,38.6-65.6,54.6-104.2,35.6c-26.6-13.1-43.5-40.1-43.6-69.7L1740.6,419.1z
		 M1848.5,405.4c2,0,3-0.9,2.6-3.3c-3.1-16.3-17.5-28-34.1-27.7c-16.2,0-30.4,11.1-34.1,26.9c-0.6,2,0,4.1,2.4,4.1H1848.5z
		 M1918.8,487.1V297.3c0-3,2.4-5.4,5.3-5.6h93.1c42.5,0,71.5,24.8,71.5,66.5s-32.9,67.4-73.6,67.4h-49.3c-2.7-0.3-5.1,1.7-5.4,4.4
		c0,0.4,0,0.8,0,1.2v55.8c-0.1,3-2.5,5.5-5.6,5.6h-30.7C1921.3,492.6,1918.8,490.1,1918.8,487.1L1918.8,487.1z M2015.2,391.3
		c17.6-0.6,31.5-15.2,31-32.9c0.5-16.8-12.7-30.8-29.4-31.3c-0.6,0-1.2,0-1.7,0h-49.7c-3.5,0-5,1.8-5,5.3v53.8c0,3.5,1.5,5.3,5,5.3
		L2015.2,391.3z M2103.1,418.2c-1.6-41.5,30.8-76.4,72.2-78c0.4,0,0.7,0,1.1,0c14.5,0.1,28.5,5.5,39.3,15.1c2.6,2.4,5.6,2,5.6-1.5
		V350c0-3,2.4-5.3,5.3-5.3h27.7c3,0.1,5.5,2.5,5.6,5.6v97.5c0,7.4,2.6,10.7,7.7,11.4c2.7,0.1,4.8,2.1,5,4.8v25.7c0,2.8-2.2,5-5,5
		l0,0c-19.6,0-31-5.6-37.5-16.8c-1.8-3-3.9-3.5-6.8-0.6c-12.5,12.9-29.7,20-47.6,19.8c-41.4-1.2-73.9-35.7-72.7-77.1
		C2103.1,419.3,2103.1,418.7,2103.1,418.2z M2221.3,418.2c1.6-21.5-14.4-40.2-35.9-41.9c-21.5-1.6-40.2,14.4-41.9,35.9
		c-0.2,2-0.2,4,0,6c-1.6,21.5,14.4,40.2,35.9,41.9c21.5,1.6,40.2-14.4,41.9-35.9C2221.5,422.1,2221.5,420.1,2221.3,418.2z
		 M2286.5,544.7v-24.2c0.1-3,2.6-5.3,5.6-5.3c19,1.4,36.6-10.3,42.5-28.4c1-3.8,0.6-7.8-1.1-11.4l-54.3-123c-1.4-2.6-0.5-5.8,2-7.3
		c0.8-0.5,1.8-0.7,2.7-0.7h29.2c3,0,4.8,2.4,5.9,5.3l34.1,78.7c2.4,6.3,6.3,5.9,8.9,0l32.5-78.9c1.1-3,2.6-4.8,5.6-4.8h28.1
		c2.8-0.1,5.2,2,5.4,4.8c0,0.8-0.1,1.5-0.4,2.2l-55.9,132.3c-20.3,48.2-41.9,66.2-85.1,66.2C2289,550.1,2286.6,547.7,2286.5,544.7
		L2286.5,544.7z"/>
</g>
</svg>
