<?xml version="1.0" encoding="utf-8"?>
<!-- Generator: Adobe Illustrator 27.6.1, SVG Export Plug-In . SVG Version: 6.00 Build 0)  -->
<svg version="1.1" id="Layer_1" xmlns="http://www.w3.org/2000/svg" xmlns:xlink="http://www.w3.org/1999/xlink" x="0px" y="0px"
	 viewBox="0 0 1276 220.9" style="enable-background:new 0 0 1276 220.9;" xml:space="preserve">
<path class="st0" d="M498,47.5v137.7h-43.8v-19.4c-1.7,3.3-4,6.3-6.9,9s-6.1,5.1-9.9,7.1c-3.7,2-7.7,3.6-12.2,4.9
	c-4.4,1.3-8.7,1.9-13.2,1.9c-9.9,0-19-1.9-27.3-5.6s-15.4-8.7-21.3-15.2c-5.9-6.4-10.4-14-13.7-22.9c-3.3-8.9-4.9-18.4-4.9-28.7
	s1.6-19.9,4.9-28.7c3.3-8.9,7.9-16.4,13.7-22.9c5.9-6.4,13-11.4,21.3-15.2s17.4-5.6,27.3-5.6c4.4,0,8.7,0.6,13.2,1.9
	c4.4,1.3,8.4,2.9,12.2,5c3.7,2.1,7,4.6,9.9,7.4c2.9,2.9,5.1,5.9,6.9,8.9V47.5H498z M421.4,151.6c5,0,9.4-1,13.4-2.9
	s7.4-4.4,10.3-7.6c2.9-3.1,5.1-6.9,6.7-11.2s2.4-8.9,2.4-13.6s-0.9-9.3-2.4-13.4c-1.6-4.1-3.9-7.9-6.7-11.2
	c-2.9-3.3-6.3-5.9-10.3-7.7c-4-1.9-8.4-2.9-13.4-2.9s-9.4,1-13.4,2.9s-7.4,4.4-10.3,7.7s-5.1,7-6.7,11.2c-1.6,4.1-2.4,8.7-2.4,13.4
	s0.9,9.3,2.4,13.6c1.6,4.3,3.9,8,6.7,11.2c2.9,3.1,6.3,5.7,10.3,7.6C411.9,150.6,416.5,151.6,421.4,151.6z M664.3,127
	c0.1,4.1,0.9,8.2,1.9,11.9s2.7,7,5.1,9.7c2.4,2.7,5.4,5,9.3,6.6s8.6,2.4,14.3,2.4c7.6,0,13.4-1.6,17.3-4.6c3.9-3,6.6-6.7,8.2-11.2
	h42.9c-1,6.4-3.1,12.6-6.7,18.3c-3.6,5.7-8.2,10.7-14,15c-5.9,4.3-12.7,7.7-20.6,10.2c-7.9,2.4-16.9,3.7-26.7,3.7
	c-12,0-22.6-1.7-31.9-5.3c-9.3-3.6-17-8.6-23.3-15s-11-14.2-14.3-23c-3.3-8.9-4.9-18.6-4.9-29.3c0-10.2,1.6-19.6,4.7-28.3
	s7.9-16.4,14-23s13.9-11.7,22.9-15.6s19.6-5.7,31.6-5.7c10.9,0,20.6,1.7,29.3,5.1c8.7,3.4,16.2,8,22.3,13.7s11,12.4,14.3,20
	s5,15.6,5,24c0,2.9,0,5.9-0.1,9.2s-0.6,7-1.3,11.2L664.3,127L664.3,127z M693.8,72.9c-8.6,0-15.6,2.4-21.2,7.4s-8.3,12.2-8.3,21.4
	h57.8c0-9-2.6-16-7.9-21.2C708.9,75.5,702.1,72.9,693.8,72.9L693.8,72.9z M1099.6,49v137.7h-43.8v-19.4c-1.7,3.3-4,6.3-6.9,9
	s-6.1,5.1-9.9,7.1c-3.7,2-7.7,3.6-12.2,4.9c-4.4,1.3-8.7,1.9-13.2,1.9c-9.9,0-19-1.9-27.3-5.6s-15.4-8.7-21.3-15.2
	c-5.9-6.4-10.4-14-13.7-22.9s-4.9-18.4-4.9-28.7s1.6-19.9,4.9-28.7c3.3-8.9,7.9-16.4,13.7-22.9c5.9-6.4,13-11.4,21.3-15.2
	c8.3-3.7,17.4-5.6,27.3-5.6c4.4,0,8.7,0.6,13.2,1.9c4.4,1.3,8.4,2.9,12.2,5c3.7,2.1,7,4.6,9.9,7.4c2.9,2.9,5.1,5.9,6.9,8.9V48.9
	L1099.6,49L1099.6,49z M1023.1,153c5,0,9.4-1,13.4-2.9s7.4-4.4,10.3-7.6s5.1-6.9,6.7-11.2s2.4-8.9,2.4-13.6s-0.9-9.3-2.4-13.4
	s-3.9-7.9-6.7-11.2c-2.9-3.3-6.3-5.9-10.3-7.7c-4-1.9-8.4-2.9-13.4-2.9s-9.4,1-13.4,2.9s-7.4,4.4-10.3,7.7s-5.1,7-6.7,11.2
	c-1.6,4.1-2.4,8.7-2.4,13.4s0.9,9.3,2.4,13.6c1.6,4.3,3.9,8,6.7,11.2c2.9,3.1,6.3,5.7,10.3,7.6C1013.6,152,1018.1,153,1023.1,153z
	 M1191.8,220.9h-51.2l24.6-49.6L1109.9,49h54l27,72.8l33.9-72.8h51.2L1191.8,220.9L1191.8,220.9z M599.7,152.6
	c-2.7,0-5.1-0.3-7.4-0.9c-2.3-0.6-4.3-1.7-6-3.3s-3-4-4-7s-1.4-7.1-1.4-12.3v-49h25.5l16.7-32.6h-42.2V0l-43.6,23.4v24h-21.7V80
	h21.7v58.9c0,11.4,1.6,20.4,4.7,27s7.1,11.4,12,14.6c4.9,3.1,10.2,5.1,15.9,5.9c5.7,0.7,11.2,1.1,16.3,1.1c6.4,0,12.2-0.3,17-0.7
	c4.9-0.4,8.9-1,12.2-1.6v-33.5c-2.1,0.4-4.6,0.7-7.4,0.7C605.1,152.6,602.4,152.6,599.7,152.6z M345.2,47.3
	c-3.4-1.3-7.6-2.1-12.4-2.1c-9.7,0-18.3,2.4-25.9,7.4S294,63.3,290.7,69.8V47.5h-43.8v137.7h43.8v-53.8c0-16.7,3.6-28.6,10.9-35.7
	c6.3-6,14.3-9.6,24-10.3C325.6,85.4,345.2,47.3,345.2,47.3z M131.8,36.9c-14.2-8.4-30.6-13.3-48.2-13.2C46.1,24.1,14.1,46.7,0,78.9
	l46.2,45.3C46.2,124.2,131.8,36.9,131.8,36.9z M169.2,78.9l-120.5,123c11.3,4.7,23.7,7.3,36.7,7.3c51.2-0.6,92.2-42.3,91.8-93.5
	C177,102.5,174.2,90.1,169.2,78.9z M825.9,67.2c1.7-3,4-6,6.9-8.9s6.1-5.3,10-7.4c3.9-2.1,7.9-3.7,12.2-5s8.7-1.9,13.3-1.9
	c9.9,0,19,1.9,27.3,5.6c8.3,3.7,15.4,8.7,21.3,15.2c5.9,6.4,10.4,14,13.7,22.9s4.9,18.4,4.9,28.7s-1.6,19.9-4.9,28.7
	c-3.3,8.9-7.9,16.4-13.7,22.9s-13,11.4-21.3,15.2c-8.3,3.7-17.4,5.6-27.3,5.6c-4.6,0-9-0.6-13.3-1.9s-8.3-2.9-12.2-5
	s-7.1-4.6-10-7.3s-5.1-5.7-6.9-9v55.3h-43.8V47.5h43.8C825.9,47.5,825.9,67.2,825.9,67.2z M859.1,81.2c-5,0-9.4,1-13.6,2.9
	s-7.6,4.4-10.4,7.6c-2.9,3.1-5.1,6.9-6.7,11.2c-1.6,4.3-2.4,8.9-2.4,13.6s0.9,9.3,2.4,13.6c1.6,4.3,3.9,8,6.7,11.2
	c2.9,3.1,6.3,5.7,10.4,7.6c4.1,1.9,8.6,2.9,13.6,2.9c4.7,0,9.2-1,13.2-2.9s7.4-4.4,10.3-7.6c2.9-3.1,5.1-6.9,6.7-11.2
	c1.6-4.3,2.4-8.9,2.4-13.6s-0.9-9.3-2.4-13.6c-1.6-4.3-3.9-8-6.7-11.2c-2.9-3.1-6.3-5.7-10.3-7.6C868.2,82.2,863.9,81.2,859.1,81.2z
	"/>
</svg>
