<svg xmlns="http://www.w3.org/2000/svg" width="16" height="17" viewBox="0 0 16 17">
    <g fill="none" fill-rule="evenodd">
        <g>
            <g>
                <g>
                    <g>
                        <g transform="translate(-182 -582) translate(142 304) translate(40 80) translate(0 199) translate(0 2)">
                            <g>
                                <rect width="15" height="11" x=".5" y=".5" stroke="#1D1D1D" rx=".667"/>
                                <rect width="4" height="1" x="9" y="5.5" fill="#1D1D1D" rx=".5"/>
                                <rect width="4" height="1" x="9" y="8" fill="#1D1D1D" rx=".5"/>
                                <rect width="4" height="1" x="9" y="3" fill="#1D1D1D" rx=".5"/>
                            </g>
                            <circle cx="5" cy="4.5" r="1.5" stroke="#1D1D1D"/>
                            <path stroke="#1D1D1D" d="M5 6c.805 0 1.427.241 1.842.767.383.486.592 1.183.658 2.078h0l-4.868.14c.009-.953.182-1.685.544-2.192C3.57 6.24 4.194 6 5 6z"/>
                        </g>
                    </g>
                </g>
            </g>
        </g>
    </g>
</svg>
