<svg xmlns="http://www.w3.org/2000/svg" xmlns:xlink="http://www.w3.org/1999/xlink" width="16" height="16" viewBox="0 0 16 16">
    <defs>
        <path id="wx0rmrjjja" d="M0 0H16V16H0z"/>
    </defs>
    <g fill="none" fill-rule="evenodd">
        <g>
            <g transform="translate(-182 -505) translate(182 505)">
                <mask id="k70yelfolb" fill="#fff">
                    <use xlink:href="#wx0rmrjjja"/>
                </mask>
                <g mask="url(#k70yelfolb)">
                    <g>
                        <path stroke="#1D1D1D" d="M0 .005c0-.026.696.44 2.087 1.402.084.058.196.054.277-.01L3.967.12c.084-.067.204-.067.289 0l1.6 1.27c.084.067.204.067.288 0L7.734.12c.084-.067.203-.068.288-.002l1.634 1.28c.081.063.194.065.278.005C11.311.41 12-.056 12 .005v14.763c0 .128-.104.232-.232.232H.232C.104 15 0 14.896 0 14.768V.005z" transform="translate(2 .5) matrix(1 0 0 -1 0 15)"/>
                        <g fill="#1D1D1D" transform="translate(2 .5) translate(2 9.315)">
                            <rect width="2" height="1" x="6" rx=".464"/>
                            <path fill-rule="nonzero" d="M4.124 0H.376C.168 0 0 .224 0 .5s.168.5.376.5h3.748C4.332 1 4.5.776 4.5.5S4.331 0 4.124 0z"/>
                        </g>
                        <g fill="#1D1D1D" transform="translate(2 .5) translate(2 6.532)">
                            <rect width="2" height="1" x="6" rx=".464"/>
                            <path fill-rule="nonzero" d="M4.124 0H.376C.168 0 0 .224 0 .5s.168.5.376.5h3.748C4.332 1 4.5.776 4.5.5S4.331 0 4.124 0z"/>
                        </g>
                        <g fill="#1D1D1D" transform="translate(2 .5) translate(2 3.75)">
                            <path fill-rule="nonzero" d="M4.124 0H.376C.168 0 0 .224 0 .5s.168.5.376.5h3.748C4.332 1 4.5.776 4.5.5S4.331 0 4.124 0z"/>
                            <rect width="2" height="1" x="6" rx=".464"/>
                        </g>
                    </g>
                </g>
            </g>
        </g>
    </g>
</svg>
